<?xml version="1.0" encoding="utf-8"?>
<!-- Generator: Adobe Illustrator 15.0.0, SVG Export Plug-In . SVG Version: 6.00 Build 0)  -->
<!DOCTYPE svg PUBLIC "-//W3C//DTD SVG 1.1//EN" "http://www.w3.org/Graphics/SVG/1.1/DTD/svg11.dtd">
<svg version="1.1" id="Layer_1" xmlns="http://www.w3.org/2000/svg" xmlns:xlink="http://www.w3.org/1999/xlink" x="0px" y="0px"
	 width="739.031px" height="367.264px" viewBox="0 0 739.031 367.264" enable-background="new 0 0 739.031 367.264"
	 xml:space="preserve">
<g id="Workspace_5">
	<g>
		<rect x="294.563" y="344.731" fill="#FFFFFF" width="169.187" height="13.934"/>
		<g>
			<path fill="#CDD0E0" d="M465.106,343.028v16.647H293.205v-16.647H465.106z M462.392,356.962v-11.22H295.92v11.22H462.392z"/>
		</g>
		<path fill="#271F3E" d="M345.802,344.386h-51.239v13.933h51.268C345.813,353.844,345.804,349.131,345.802,344.386z"/>
		<path fill="#CDD0E0" d="M347.193,359.676h-53.988v-16.647h53.952l0.002,1.357c0.002,4.743,0.012,9.453,0.028,13.928
			L347.193,359.676z M295.92,356.962h48.548c-0.012-3.636-0.02-7.41-0.023-11.22H295.92V356.962z"/>
		<rect x="463.749" y="346.31" fill="#271F3E" width="9.99" height="9.355"/>
		<path fill="#CDD0E0" d="M475.097,344.953v12.068h-12.705v-12.068H475.097z M472.382,354.308v-6.64h-7.275v6.64H472.382z"/>
		<g>
			<rect x="298.352" y="359.691" fill="#CDD0E0" width="2.715" height="5.64"/>
		</g>
		<g>
			<rect x="340.535" y="359.691" fill="#CDD0E0" width="2.714" height="5.64"/>
		</g>
		<g>
			<rect x="298.352" y="363.531" fill="#CDD0E0" width="44.897" height="2.714"/>
		</g>
	</g>
	<g>
		<g>
			<path fill="#FFFFFF" d="M540.779,304.352c0,3.695-2.997,6.691-6.691,6.691H228.832c-3.695,0-6.691-2.996-6.691-6.691V101.061
				c0-3.695,2.996-6.691,6.691-6.691h305.256c3.694,0,6.691,2.996,6.691,6.691V304.352z"/>
		</g>
		<g>
			<path fill="#CDD0E0" d="M534.308,311.697H229.053c-4.48,0-8.125-3.646-8.125-8.125V100.281c0-4.479,3.645-8.125,8.125-8.125
				h305.255c4.479,0,8.126,3.646,8.126,8.125v203.291C542.434,308.052,538.787,311.697,534.308,311.697z M229.053,95.023
				c-2.899,0-5.257,2.358-5.257,5.258v203.291c0,2.899,2.358,5.257,5.257,5.257h305.255c2.899,0,5.258-2.357,5.258-5.257V100.281
				c0-2.899-2.358-5.258-5.258-5.258H229.053z"/>
		</g>
		<g>
			<g>
				<defs>
					<path id="SVGID_1_" d="M508.328,216.584c0,2.641-2.14,4.779-4.779,4.779H260.109c-2.64,0-4.779-2.139-4.779-4.779v-95.591
						c0-2.64,2.14-4.779,4.779-4.779h243.439c2.64,0,4.779,2.14,4.779,4.779V216.584z"/>
				</defs>
				<use xlink:href="#SVGID_1_"  overflow="visible" fill="#CDD0E0"/>
				<clipPath id="SVGID_2_">
					<use xlink:href="#SVGID_1_"  overflow="visible"/>
				</clipPath>
				<path clip-path="url(#SVGID_2_)" fill="#CDD0E0" d="M255.33,116.214v105.149V116.214z"/>
				<rect x="255.33" y="116.214" clip-path="url(#SVGID_2_)" fill="#CDD0E0" width="6.17" height="105.149"/>
				<rect x="261.5" y="116.214" clip-path="url(#SVGID_2_)" fill="#CDD0E0" width="6.171" height="105.149"/>
				<rect x="267.671" y="116.214" clip-path="url(#SVGID_2_)" fill="#CDD0E0" width="6.17" height="105.149"/>
				<rect x="273.842" y="116.214" clip-path="url(#SVGID_2_)" fill="#CDD0E0" width="6.171" height="105.149"/>
				<rect x="280.013" y="116.214" clip-path="url(#SVGID_2_)" fill="#CDD0E0" width="6.17" height="105.149"/>
				<rect x="286.183" y="116.214" clip-path="url(#SVGID_2_)" fill="#CDD0E0" width="6.171" height="105.149"/>
				<rect x="292.354" y="116.214" clip-path="url(#SVGID_2_)" fill="#CDD0E0" width="6.17" height="105.149"/>
				<rect x="298.525" y="116.214" clip-path="url(#SVGID_2_)" fill="#CDD0E0" width="6.171" height="105.149"/>
				<rect x="304.696" y="116.214" clip-path="url(#SVGID_2_)" fill="#CDD0E0" width="6.17" height="105.149"/>
				<rect x="310.866" y="116.214" clip-path="url(#SVGID_2_)" fill="#CDD0E0" width="6.17" height="105.149"/>
				<rect x="317.037" y="116.214" clip-path="url(#SVGID_2_)" fill="#CDD0E0" width="6.171" height="105.149"/>
				<rect x="323.208" y="116.214" clip-path="url(#SVGID_2_)" fill="#CDD0E0" width="6.17" height="105.149"/>
				<rect x="329.378" y="116.214" clip-path="url(#SVGID_2_)" fill="#CDD0E0" width="6.171" height="105.149"/>
				<rect x="335.549" y="116.214" clip-path="url(#SVGID_2_)" fill="#CDD0E0" width="6.171" height="105.149"/>
				<rect x="341.72" y="116.214" clip-path="url(#SVGID_2_)" fill="#CDD0E0" width="6.171" height="105.149"/>
				<rect x="347.891" y="116.214" clip-path="url(#SVGID_2_)" fill="#CDD0E0" width="6.17" height="105.149"/>
				<rect x="354.061" y="116.214" clip-path="url(#SVGID_2_)" fill="#CDD0E0" width="6.17" height="105.149"/>
				<rect x="360.231" y="116.214" clip-path="url(#SVGID_2_)" fill="#CDD0E0" width="6.171" height="105.149"/>
				<rect x="366.402" y="116.214" clip-path="url(#SVGID_2_)" fill="#CDD0E0" width="6.17" height="105.149"/>
				<rect x="372.572" y="116.214" clip-path="url(#SVGID_2_)" fill="#CDD0E0" width="6.171" height="105.149"/>
				<rect x="378.743" y="116.214" clip-path="url(#SVGID_2_)" fill="#CDD0E0" width="6.172" height="105.149"/>
				<rect x="384.915" y="116.214" clip-path="url(#SVGID_2_)" fill="#CDD0E0" width="6.171" height="105.149"/>
				<rect x="391.086" y="116.214" clip-path="url(#SVGID_2_)" fill="#CDD0E0" width="6.17" height="105.149"/>
				<rect x="397.256" y="116.214" clip-path="url(#SVGID_2_)" fill="#CDD0E0" width="6.171" height="105.149"/>
				<rect x="403.427" y="116.214" clip-path="url(#SVGID_2_)" fill="#CDD0E0" width="6.17" height="105.149"/>
				<rect x="409.597" y="116.214" clip-path="url(#SVGID_2_)" fill="#CDD0E0" width="6.171" height="105.149"/>
				<rect x="415.768" y="116.214" clip-path="url(#SVGID_2_)" fill="#CDD0E0" width="6.17" height="105.149"/>
				<rect x="421.938" y="116.214" clip-path="url(#SVGID_2_)" fill="#CDD0E0" width="6.171" height="105.149"/>
				<rect x="428.108" y="116.214" clip-path="url(#SVGID_2_)" fill="#CDD0E0" width="6.171" height="105.149"/>
				<rect x="434.279" y="116.214" clip-path="url(#SVGID_2_)" fill="#CDD0E0" width="6.172" height="105.149"/>
				<rect x="440.451" y="116.214" clip-path="url(#SVGID_2_)" fill="#CDD0E0" width="6.171" height="105.149"/>
				<rect x="446.622" y="116.214" clip-path="url(#SVGID_2_)" fill="#CDD0E0" width="6.17" height="105.149"/>
				<rect x="452.792" y="116.214" clip-path="url(#SVGID_2_)" fill="#CDD0E0" width="6.171" height="105.149"/>
				<rect x="458.963" y="116.214" clip-path="url(#SVGID_2_)" fill="#CDD0E0" width="6.17" height="105.149"/>
				<rect x="465.133" y="116.214" clip-path="url(#SVGID_2_)" fill="#CDD0E0" width="6.171" height="105.149"/>
				<rect x="471.304" y="116.214" clip-path="url(#SVGID_2_)" fill="#CDD0E0" width="6.171" height="105.149"/>
				<rect x="477.475" y="116.214" clip-path="url(#SVGID_2_)" fill="#CDD0E0" width="6.17" height="105.149"/>
				<rect x="483.645" y="116.214" clip-path="url(#SVGID_2_)" fill="#CDD0E0" width="6.171" height="105.149"/>
				<rect x="489.815" y="116.214" clip-path="url(#SVGID_2_)" fill="#CDD0E0" width="6.172" height="105.149"/>
				<rect x="495.987" y="116.214" clip-path="url(#SVGID_2_)" fill="#CDD0E0" width="6.171" height="105.149"/>
				<rect x="502.158" y="116.214" clip-path="url(#SVGID_2_)" fill="#CDD0E0" width="6.17" height="105.149"/>
				<path clip-path="url(#SVGID_2_)" fill="#CDD0E0" d="M508.328,221.363V116.214V221.363z"/>
			</g>
		</g>
		<g>
			<path fill="#271F3E" d="M263.295,130.394c-0.791,0-1.434-0.644-1.434-1.434v-4.462c0-0.79,0.643-1.434,1.434-1.434h11.153
				c0.791,0,1.434,0.644,1.434,1.434v4.462c0,0.79-0.643,1.434-1.434,1.434H263.295z"/>
		</g>
		<g>
			<path fill="#FFFFFF" d="M274.448,123.543c0.527,0,0.956,0.428,0.956,0.955v4.462c0,0.526-0.429,0.956-0.956,0.956h-11.153
				c-0.527,0-0.956-0.43-0.956-0.956v-4.462c0-0.527,0.428-0.955,0.956-0.955H274.448 M274.448,122.587h-11.153
				c-1.056,0-1.912,0.855-1.912,1.911v4.462c0,1.056,0.856,1.911,1.912,1.911h11.153c1.056,0,1.912-0.855,1.912-1.911v-4.462
				C276.36,123.442,275.504,122.587,274.448,122.587L274.448,122.587z"/>
		</g>
		<g>
			<path fill="#271F3E" d="M280.648,130.394c-0.791,0-1.434-0.644-1.434-1.434v-4.462c0-0.79,0.643-1.434,1.434-1.434h11.154
				c0.791,0,1.434,0.644,1.434,1.434v4.462c0,0.79-0.643,1.434-1.434,1.434H280.648z"/>
		</g>
		<g>
			<path fill="#FFFFFF" d="M291.802,123.543c0.527,0,0.956,0.428,0.956,0.955v4.462c0,0.526-0.428,0.956-0.956,0.956h-11.154
				c-0.527,0-0.956-0.43-0.956-0.956v-4.462c0-0.527,0.429-0.955,0.956-0.955H291.802 M291.802,122.587h-11.154
				c-1.055,0-1.912,0.855-1.912,1.911v4.462c0,1.056,0.857,1.911,1.912,1.911h11.154c1.055,0,1.912-0.855,1.912-1.911v-4.462
				C293.714,123.442,292.857,122.587,291.802,122.587L291.802,122.587z"/>
		</g>
		<g>
			<path fill="#271F3E" d="M298.002,130.394c-0.791,0-1.434-0.644-1.434-1.434v-4.462c0-0.79,0.644-1.434,1.434-1.434h11.153
				c0.791,0,1.434,0.644,1.434,1.434v4.462c0,0.79-0.643,1.434-1.434,1.434H298.002z"/>
		</g>
		<g>
			<path fill="#FFFFFF" d="M309.155,123.543c0.527,0,0.956,0.428,0.956,0.955v4.462c0,0.526-0.428,0.956-0.956,0.956h-11.153
				c-0.527,0-0.956-0.43-0.956-0.956v-4.462c0-0.527,0.429-0.955,0.956-0.955H309.155 M309.155,122.587h-11.153
				c-1.056,0-1.912,0.855-1.912,1.911v4.462c0,1.056,0.856,1.911,1.912,1.911h11.153c1.056,0,1.912-0.855,1.912-1.911v-4.462
				C311.067,123.442,310.211,122.587,309.155,122.587L309.155,122.587z"/>
		</g>
		<g>
			<path fill="#271F3E" d="M315.356,130.394c-0.791,0-1.434-0.644-1.434-1.434v-4.462c0-0.79,0.643-1.434,1.434-1.434h11.152
				c0.791,0,1.434,0.644,1.434,1.434v4.462c0,0.79-0.643,1.434-1.434,1.434H315.356z"/>
		</g>
		<g>
			<path fill="#FFFFFF" d="M326.509,123.543c0.527,0,0.956,0.428,0.956,0.955v4.462c0,0.526-0.429,0.956-0.956,0.956h-11.152
				c-0.527,0-0.956-0.43-0.956-0.956v-4.462c0-0.527,0.429-0.955,0.956-0.955H326.509 M326.509,122.587h-11.152
				c-1.056,0-1.912,0.855-1.912,1.911v4.462c0,1.056,0.856,1.911,1.912,1.911h11.152c1.056,0,1.912-0.855,1.912-1.911v-4.462
				C328.421,123.442,327.564,122.587,326.509,122.587L326.509,122.587z"/>
		</g>
		<g>
			<path fill="#271F3E" d="M332.709,130.394c-0.791,0-1.434-0.644-1.434-1.434v-4.462c0-0.79,0.643-1.434,1.434-1.434h11.152
				c0.791,0,1.434,0.644,1.434,1.434v4.462c0,0.79-0.644,1.434-1.434,1.434H332.709z"/>
		</g>
		<g>
			<path fill="#FFFFFF" d="M343.862,123.543c0.527,0,0.956,0.428,0.956,0.955v4.462c0,0.526-0.429,0.956-0.956,0.956h-11.152
				c-0.528,0-0.956-0.43-0.956-0.956v-4.462c0-0.527,0.428-0.955,0.956-0.955H343.862 M343.862,122.587h-11.152
				c-1.056,0-1.912,0.855-1.912,1.911v4.462c0,1.056,0.856,1.911,1.912,1.911h11.152c1.056,0,1.912-0.855,1.912-1.911v-4.462
				C345.773,123.442,344.917,122.587,343.862,122.587L343.862,122.587z"/>
		</g>
		<g>
			<path fill="#271F3E" d="M350.063,130.394c-0.791,0-1.434-0.644-1.434-1.434v-4.462c0-0.79,0.643-1.434,1.434-1.434h11.153
				c0.791,0,1.434,0.644,1.434,1.434v4.462c0,0.79-0.643,1.434-1.434,1.434H350.063z"/>
		</g>
		<g>
			<path fill="#FFFFFF" d="M361.216,123.543c0.527,0,0.956,0.428,0.956,0.955v4.462c0,0.526-0.429,0.956-0.956,0.956h-11.153
				c-0.527,0-0.956-0.43-0.956-0.956v-4.462c0-0.527,0.428-0.955,0.956-0.955H361.216 M361.216,122.587h-11.153
				c-1.056,0-1.912,0.855-1.912,1.911v4.462c0,1.056,0.856,1.911,1.912,1.911h11.153c1.056,0,1.912-0.855,1.912-1.911v-4.462
				C363.127,123.442,362.271,122.587,361.216,122.587L361.216,122.587z"/>
		</g>
		<g>
			<path fill="#271F3E" d="M367.416,130.394c-0.791,0-1.434-0.644-1.434-1.434v-4.462c0-0.79,0.643-1.434,1.434-1.434h11.153
				c0.79,0,1.434,0.644,1.434,1.434v4.462c0,0.79-0.644,1.434-1.434,1.434H367.416z"/>
		</g>
		<g>
			<path fill="#FFFFFF" d="M378.569,123.543c0.526,0,0.956,0.428,0.956,0.955v4.462c0,0.526-0.43,0.956-0.956,0.956h-11.153
				c-0.527,0-0.956-0.43-0.956-0.956v-4.462c0-0.527,0.429-0.955,0.956-0.955H378.569 M378.569,122.587h-11.153
				c-1.056,0-1.912,0.855-1.912,1.911v4.462c0,1.056,0.856,1.911,1.912,1.911h11.153c1.055,0,1.912-0.855,1.912-1.911v-4.462
				C380.481,123.442,379.624,122.587,378.569,122.587L378.569,122.587z"/>
		</g>
		<g>
			<path fill="#271F3E" d="M384.77,130.394c-0.79,0-1.434-0.644-1.434-1.434v-4.462c0-0.79,0.644-1.434,1.434-1.434h11.153
				c0.79,0,1.435,0.644,1.435,1.434v4.462c0,0.79-0.645,1.434-1.435,1.434H384.77z"/>
		</g>
		<g>
			<path fill="#FFFFFF" d="M395.923,123.543c0.526,0,0.956,0.428,0.956,0.955v4.462c0,0.526-0.43,0.956-0.956,0.956H384.77
				c-0.526,0-0.956-0.43-0.956-0.956v-4.462c0-0.527,0.43-0.955,0.956-0.955H395.923 M395.923,122.587H384.77
				c-1.055,0-1.912,0.855-1.912,1.911v4.462c0,1.056,0.857,1.911,1.912,1.911h11.153c1.055,0,1.912-0.855,1.912-1.911v-4.462
				C397.835,123.442,396.978,122.587,395.923,122.587L395.923,122.587z"/>
		</g>
		<g>
			<path fill="#271F3E" d="M402.123,130.394c-0.791,0-1.434-0.644-1.434-1.434v-4.462c0-0.79,0.643-1.434,1.434-1.434h11.152
				c0.791,0,1.434,0.644,1.434,1.434v4.462c0,0.79-0.643,1.434-1.434,1.434H402.123z"/>
		</g>
		<g>
			<path fill="#FFFFFF" d="M413.275,123.543c0.528,0,0.955,0.428,0.955,0.955v4.462c0,0.526-0.427,0.956-0.955,0.956h-11.152
				c-0.528,0-0.955-0.43-0.955-0.956v-4.462c0-0.527,0.427-0.955,0.955-0.955H413.275 M413.275,122.587h-11.152
				c-1.057,0-1.911,0.855-1.911,1.911v4.462c0,1.056,0.854,1.911,1.911,1.911h11.152c1.057,0,1.911-0.855,1.911-1.911v-4.462
				C415.187,123.442,414.332,122.587,413.275,122.587L413.275,122.587z"/>
		</g>
		<g>
			<path fill="#271F3E" d="M419.478,130.394c-0.792,0-1.435-0.644-1.435-1.434v-4.462c0-0.79,0.643-1.434,1.435-1.434h11.151
				c0.792,0,1.434,0.644,1.434,1.434v4.462c0,0.79-0.642,1.434-1.434,1.434H419.478z"/>
		</g>
		<g>
			<path fill="#FFFFFF" d="M430.629,123.543c0.528,0,0.956,0.428,0.956,0.955v4.462c0,0.526-0.428,0.956-0.956,0.956h-11.151
				c-0.528,0-0.956-0.43-0.956-0.956v-4.462c0-0.527,0.428-0.955,0.956-0.955H430.629 M430.629,122.587h-11.151
				c-1.057,0-1.912,0.855-1.912,1.911v4.462c0,1.056,0.855,1.911,1.912,1.911h11.151c1.057,0,1.912-0.855,1.912-1.911v-4.462
				C432.541,123.442,431.686,122.587,430.629,122.587L430.629,122.587z"/>
		</g>
		<g>
			<path fill="#271F3E" d="M436.829,130.394c-0.79,0-1.434-0.644-1.434-1.434v-4.462c0-0.79,0.644-1.434,1.434-1.434h11.153
				c0.79,0,1.435,0.644,1.435,1.434v4.462c0,0.79-0.645,1.434-1.435,1.434H436.829z"/>
		</g>
		<g>
			<path fill="#FFFFFF" d="M447.982,123.543c0.527,0,0.956,0.428,0.956,0.955v4.462c0,0.526-0.429,0.956-0.956,0.956h-11.153
				c-0.526,0-0.956-0.43-0.956-0.956v-4.462c0-0.527,0.43-0.955,0.956-0.955H447.982 M447.982,122.587h-11.153
				c-1.055,0-1.911,0.855-1.911,1.911v4.462c0,1.056,0.856,1.911,1.911,1.911h11.153c1.056,0,1.912-0.855,1.912-1.911v-4.462
				C449.895,123.442,449.038,122.587,447.982,122.587L447.982,122.587z"/>
		</g>
		<g>
			<path fill="#271F3E" d="M454.184,130.394c-0.79,0-1.435-0.644-1.435-1.434v-4.462c0-0.79,0.645-1.434,1.435-1.434h11.153
				c0.79,0,1.434,0.644,1.434,1.434v4.462c0,0.79-0.644,1.434-1.434,1.434H454.184z"/>
		</g>
		<g>
			<path fill="#FFFFFF" d="M465.337,123.543c0.526,0,0.956,0.428,0.956,0.955v4.462c0,0.526-0.43,0.956-0.956,0.956h-11.153
				c-0.527,0-0.956-0.43-0.956-0.956v-4.462c0-0.527,0.429-0.955,0.956-0.955H465.337 M465.337,122.587h-11.153
				c-1.056,0-1.912,0.855-1.912,1.911v4.462c0,1.056,0.856,1.911,1.912,1.911h11.153c1.055,0,1.911-0.855,1.911-1.911v-4.462
				C467.248,123.442,466.392,122.587,465.337,122.587L465.337,122.587z"/>
		</g>
		<g>
			<path fill="#271F3E" d="M471.537,130.394c-0.79,0-1.434-0.644-1.434-1.434v-4.462c0-0.79,0.644-1.434,1.434-1.434h11.151
				c0.792,0,1.435,0.644,1.435,1.434v4.462c0,0.79-0.643,1.434-1.435,1.434H471.537z"/>
		</g>
		<g>
			<path fill="#FFFFFF" d="M482.688,123.543c0.528,0,0.956,0.428,0.956,0.955v4.462c0,0.526-0.428,0.956-0.956,0.956h-11.151
				c-0.526,0-0.956-0.43-0.956-0.956v-4.462c0-0.527,0.43-0.955,0.956-0.955H482.688 M482.688,122.587h-11.151
				c-1.057,0-1.912,0.855-1.912,1.911v4.462c0,1.056,0.855,1.911,1.912,1.911h11.151c1.057,0,1.912-0.855,1.912-1.911v-4.462
				C484.601,123.442,483.745,122.587,482.688,122.587L482.688,122.587z"/>
		</g>
		<g>
			<path fill="#271F3E" d="M488.891,130.394c-0.791,0-1.434-0.644-1.434-1.434v-4.462c0-0.79,0.643-1.434,1.434-1.434h11.152
				c0.791,0,1.434,0.644,1.434,1.434v4.462c0,0.79-0.643,1.434-1.434,1.434H488.891z"/>
		</g>
		<g>
			<path fill="#FFFFFF" d="M500.043,123.543c0.528,0,0.955,0.428,0.955,0.955v4.462c0,0.526-0.427,0.956-0.955,0.956h-11.152
				c-0.528,0-0.955-0.43-0.955-0.956v-4.462c0-0.527,0.427-0.955,0.955-0.955H500.043 M500.043,122.587h-11.152
				c-1.057,0-1.911,0.855-1.911,1.911v4.462c0,1.056,0.854,1.911,1.911,1.911h11.152c1.057,0,1.911-0.855,1.911-1.911v-4.462
				C501.954,123.442,501.1,122.587,500.043,122.587L500.043,122.587z"/>
		</g>
		<g>
			<path fill="#271F3E" d="M262.977,147.28c-0.791,0-1.434-0.643-1.434-1.434v-11.152c0-0.791,0.643-1.435,1.434-1.435h11.152
				c0.791,0,1.434,0.644,1.434,1.435v11.152c0,0.791-0.644,1.434-1.434,1.434H262.977z"/>
		</g>
		<g>
			<path fill="#FFFFFF" d="M274.129,133.738c0.527,0,0.956,0.429,0.956,0.956v11.152c0,0.526-0.429,0.956-0.956,0.956h-11.152
				c-0.528,0-0.956-0.43-0.956-0.956v-11.152c0-0.527,0.428-0.956,0.956-0.956H274.129 M274.129,132.782h-11.152
				c-1.056,0-1.912,0.856-1.912,1.912v11.152c0,1.056,0.856,1.912,1.912,1.912h11.152c1.056,0,1.912-0.856,1.912-1.912v-11.152
				C276.041,133.639,275.185,132.782,274.129,132.782L274.129,132.782z"/>
		</g>
		<g>
			<path fill="#271F3E" d="M279.717,147.28c-0.791,0-1.434-0.643-1.434-1.434v-11.152c0-0.791,0.643-1.435,1.434-1.435h11.153
				c0.791,0,1.434,0.644,1.434,1.435v11.152c0,0.791-0.643,1.434-1.434,1.434H279.717z"/>
		</g>
		<g>
			<path fill="#FFFFFF" d="M290.87,133.738c0.527,0,0.956,0.429,0.956,0.956v11.152c0,0.526-0.428,0.956-0.956,0.956h-11.153
				c-0.527,0-0.956-0.43-0.956-0.956v-11.152c0-0.527,0.429-0.956,0.956-0.956H290.87 M290.87,132.782h-11.153
				c-1.056,0-1.912,0.856-1.912,1.912v11.152c0,1.056,0.856,1.912,1.912,1.912h11.153c1.056,0,1.912-0.856,1.912-1.912v-11.152
				C292.781,133.639,291.925,132.782,290.87,132.782L290.87,132.782z"/>
		</g>
		<g>
			<path fill="#271F3E" d="M296.458,147.28c-0.791,0-1.434-0.643-1.434-1.434v-11.152c0-0.791,0.644-1.435,1.434-1.435h11.152
				c0.791,0,1.434,0.644,1.434,1.435v11.152c0,0.791-0.643,1.434-1.434,1.434H296.458z"/>
		</g>
		<g>
			<path fill="#FFFFFF" d="M307.61,133.738c0.528,0,0.956,0.429,0.956,0.956v11.152c0,0.526-0.428,0.956-0.956,0.956h-11.152
				c-0.527,0-0.956-0.43-0.956-0.956v-11.152c0-0.527,0.429-0.956,0.956-0.956H307.61 M307.61,132.782h-11.152
				c-1.056,0-1.912,0.856-1.912,1.912v11.152c0,1.056,0.856,1.912,1.912,1.912h11.152c1.056,0,1.912-0.856,1.912-1.912v-11.152
				C309.522,133.639,308.666,132.782,307.61,132.782L307.61,132.782z"/>
		</g>
		<g>
			<path fill="#271F3E" d="M313.198,147.28c-0.791,0-1.434-0.643-1.434-1.434v-11.152c0-0.791,0.643-1.435,1.434-1.435h11.153
				c0.791,0,1.434,0.644,1.434,1.435v11.152c0,0.791-0.644,1.434-1.434,1.434H313.198z"/>
		</g>
		<g>
			<path fill="#FFFFFF" d="M324.352,133.738c0.527,0,0.956,0.429,0.956,0.956v11.152c0,0.526-0.429,0.956-0.956,0.956h-11.153
				c-0.528,0-0.956-0.43-0.956-0.956v-11.152c0-0.527,0.428-0.956,0.956-0.956H324.352 M324.352,132.782h-11.153
				c-1.055,0-1.912,0.856-1.912,1.912v11.152c0,1.056,0.857,1.912,1.912,1.912h11.153c1.055,0,1.912-0.856,1.912-1.912v-11.152
				C326.263,133.639,325.406,132.782,324.352,132.782L324.352,132.782z"/>
		</g>
		<g>
			<path fill="#271F3E" d="M329.939,147.28c-0.791,0-1.434-0.643-1.434-1.434v-11.152c0-0.791,0.643-1.435,1.434-1.435h11.153
				c0.791,0,1.434,0.644,1.434,1.435v11.152c0,0.791-0.643,1.434-1.434,1.434H329.939z"/>
		</g>
		<g>
			<path fill="#FFFFFF" d="M341.092,133.738c0.527,0,0.956,0.429,0.956,0.956v11.152c0,0.526-0.428,0.956-0.956,0.956h-11.153
				c-0.527,0-0.956-0.43-0.956-0.956v-11.152c0-0.527,0.429-0.956,0.956-0.956H341.092 M341.092,132.782h-11.153
				c-1.056,0-1.912,0.856-1.912,1.912v11.152c0,1.056,0.856,1.912,1.912,1.912h11.153c1.056,0,1.912-0.856,1.912-1.912v-11.152
				C343.004,133.639,342.148,132.782,341.092,132.782L341.092,132.782z"/>
		</g>
		<g>
			<path fill="#271F3E" d="M346.68,147.28c-0.791,0-1.434-0.643-1.434-1.434v-11.152c0-0.791,0.644-1.435,1.434-1.435h11.152
				c0.791,0,1.434,0.644,1.434,1.435v11.152c0,0.791-0.643,1.434-1.434,1.434H346.68z"/>
		</g>
		<g>
			<path fill="#FFFFFF" d="M357.833,133.738c0.528,0,0.956,0.429,0.956,0.956v11.152c0,0.526-0.428,0.956-0.956,0.956H346.68
				c-0.527,0-0.956-0.43-0.956-0.956v-11.152c0-0.527,0.429-0.956,0.956-0.956H357.833 M357.833,132.782H346.68
				c-1.056,0-1.912,0.856-1.912,1.912v11.152c0,1.056,0.856,1.912,1.912,1.912h11.152c1.056,0,1.912-0.856,1.912-1.912v-11.152
				C359.745,133.639,358.889,132.782,357.833,132.782L357.833,132.782z"/>
		</g>
		<g>
			<path fill="#271F3E" d="M363.421,147.28c-0.791,0-1.434-0.643-1.434-1.434v-11.152c0-0.791,0.643-1.435,1.434-1.435h11.152
				c0.79,0,1.435,0.644,1.435,1.435v11.152c0,0.791-0.645,1.434-1.435,1.434H363.421z"/>
		</g>
		<g>
			<path fill="#FFFFFF" d="M374.573,133.738c0.527,0,0.956,0.429,0.956,0.956v11.152c0,0.526-0.429,0.956-0.956,0.956h-11.152
				c-0.528,0-0.956-0.43-0.956-0.956v-11.152c0-0.527,0.428-0.956,0.956-0.956H374.573 M374.573,132.782h-11.152
				c-1.056,0-1.912,0.856-1.912,1.912v11.152c0,1.056,0.856,1.912,1.912,1.912h11.152c1.056,0,1.912-0.856,1.912-1.912v-11.152
				C376.485,133.639,375.629,132.782,374.573,132.782L374.573,132.782z"/>
		</g>
		<g>
			<path fill="#271F3E" d="M380.162,147.28c-0.792,0-1.435-0.643-1.435-1.434v-11.152c0-0.791,0.643-1.435,1.435-1.435h11.151
				c0.792,0,1.434,0.644,1.434,1.435v11.152c0,0.791-0.642,1.434-1.434,1.434H380.162z"/>
		</g>
		<g>
			<path fill="#FFFFFF" d="M391.313,133.738c0.528,0,0.956,0.429,0.956,0.956v11.152c0,0.526-0.428,0.956-0.956,0.956h-11.151
				c-0.528,0-0.956-0.43-0.956-0.956v-11.152c0-0.527,0.428-0.956,0.956-0.956H391.313 M391.313,132.782h-11.151
				c-1.057,0-1.912,0.856-1.912,1.912v11.152c0,1.056,0.855,1.912,1.912,1.912h11.151c1.057,0,1.912-0.856,1.912-1.912v-11.152
				C393.226,133.639,392.37,132.782,391.313,132.782L391.313,132.782z"/>
		</g>
		<g>
			<path fill="#271F3E" d="M396.901,147.28c-0.79,0-1.434-0.643-1.434-1.434v-11.152c0-0.791,0.644-1.435,1.434-1.435h11.153
				c0.79,0,1.434,0.644,1.434,1.435v11.152c0,0.791-0.644,1.434-1.434,1.434H396.901z"/>
		</g>
		<g>
			<path fill="#FFFFFF" d="M408.055,133.738c0.526,0,0.956,0.429,0.956,0.956v11.152c0,0.526-0.43,0.956-0.956,0.956h-11.153
				c-0.526,0-0.956-0.43-0.956-0.956v-11.152c0-0.527,0.43-0.956,0.956-0.956H408.055 M408.055,132.782h-11.153
				c-1.055,0-1.912,0.856-1.912,1.912v11.152c0,1.056,0.857,1.912,1.912,1.912h11.153c1.055,0,1.912-0.856,1.912-1.912v-11.152
				C409.967,133.639,409.109,132.782,408.055,132.782L408.055,132.782z"/>
		</g>
		<g>
			<path fill="#271F3E" d="M413.643,147.28c-0.791,0-1.434-0.643-1.434-1.434v-11.152c0-0.791,0.643-1.435,1.434-1.435h11.152
				c0.791,0,1.434,0.644,1.434,1.435v11.152c0,0.791-0.643,1.434-1.434,1.434H413.643z"/>
		</g>
		<g>
			<path fill="#FFFFFF" d="M424.795,133.738c0.528,0,0.955,0.429,0.955,0.956v11.152c0,0.526-0.427,0.956-0.955,0.956h-11.152
				c-0.528,0-0.956-0.43-0.956-0.956v-11.152c0-0.527,0.428-0.956,0.956-0.956H424.795 M424.795,132.782h-11.152
				c-1.057,0-1.911,0.856-1.911,1.912v11.152c0,1.056,0.854,1.912,1.911,1.912h11.152c1.057,0,1.911-0.856,1.911-1.912v-11.152
				C426.706,133.639,425.852,132.782,424.795,132.782L424.795,132.782z"/>
		</g>
		<g>
			<path fill="#271F3E" d="M430.383,147.28c-0.79,0-1.435-0.643-1.435-1.434v-11.152c0-0.791,0.645-1.435,1.435-1.435h11.153
				c0.792,0,1.434,0.644,1.434,1.435v11.152c0,0.791-0.642,1.434-1.434,1.434H430.383z"/>
		</g>
		<g>
			<path fill="#FFFFFF" d="M441.536,133.738c0.528,0,0.956,0.429,0.956,0.956v11.152c0,0.526-0.428,0.956-0.956,0.956h-11.153
				c-0.526,0-0.956-0.43-0.956-0.956v-11.152c0-0.527,0.43-0.956,0.956-0.956H441.536 M441.536,132.782h-11.153
				c-1.055,0-1.912,0.856-1.912,1.912v11.152c0,1.056,0.857,1.912,1.912,1.912h11.153c1.055,0,1.912-0.856,1.912-1.912v-11.152
				C443.448,133.639,442.591,132.782,441.536,132.782L441.536,132.782z"/>
		</g>
		<g>
			<path fill="#271F3E" d="M447.124,147.28c-0.79,0-1.434-0.643-1.434-1.434v-11.152c0-0.791,0.644-1.435,1.434-1.435h11.153
				c0.79,0,1.434,0.644,1.434,1.435v11.152c0,0.791-0.644,1.434-1.434,1.434H447.124z"/>
		</g>
		<g>
			<path fill="#FFFFFF" d="M458.277,133.738c0.526,0,0.956,0.429,0.956,0.956v11.152c0,0.526-0.43,0.956-0.956,0.956h-11.153
				c-0.526,0-0.956-0.43-0.956-0.956v-11.152c0-0.527,0.43-0.956,0.956-0.956H458.277 M458.277,132.782h-11.153
				c-1.055,0-1.912,0.856-1.912,1.912v11.152c0,1.056,0.857,1.912,1.912,1.912h11.153c1.055,0,1.912-0.856,1.912-1.912v-11.152
				C460.189,133.639,459.332,132.782,458.277,132.782L458.277,132.782z"/>
		</g>
		<g>
			<path fill="#271F3E" d="M463.865,147.28c-0.791,0-1.434-0.643-1.434-1.434v-11.152c0-0.791,0.643-1.435,1.434-1.435h11.152
				c0.791,0,1.434,0.644,1.434,1.435v11.152c0,0.791-0.643,1.434-1.434,1.434H463.865z"/>
		</g>
		<g>
			<path fill="#FFFFFF" d="M475.018,133.738c0.528,0,0.955,0.429,0.955,0.956v11.152c0,0.526-0.427,0.956-0.955,0.956h-11.152
				c-0.528,0-0.956-0.43-0.956-0.956v-11.152c0-0.527,0.428-0.956,0.956-0.956H475.018 M475.018,132.782h-11.152
				c-1.057,0-1.911,0.856-1.911,1.912v11.152c0,1.056,0.854,1.912,1.911,1.912h11.152c1.057,0,1.911-0.856,1.911-1.912v-11.152
				C476.929,133.639,476.074,132.782,475.018,132.782L475.018,132.782z"/>
		</g>
		<g>
			<path fill="#271F3E" d="M480.605,147.28c-0.79,0-1.435-0.643-1.435-1.434v-11.152c0-0.791,0.645-1.435,1.435-1.435h19.757
				c0.789,0,1.434,0.644,1.434,1.435v11.152c0,0.791-0.645,1.434-1.434,1.434H480.605z"/>
		</g>
		<g>
			<path fill="#FFFFFF" d="M500.362,133.738c0.526,0,0.955,0.429,0.955,0.956v11.152c0,0.526-0.429,0.956-0.955,0.956h-19.757
				c-0.526,0-0.956-0.43-0.956-0.956v-11.152c0-0.527,0.43-0.956,0.956-0.956H500.362 M500.362,132.782h-19.757
				c-1.055,0-1.912,0.856-1.912,1.912v11.152c0,1.056,0.857,1.912,1.912,1.912h19.757c1.055,0,1.911-0.856,1.911-1.912v-11.152
				C502.273,133.639,501.417,132.782,500.362,132.782L500.362,132.782z"/>
		</g>
		<g>
			<path fill="#271F3E" d="M489.208,163.531c-0.789,0-1.434-0.644-1.434-1.434v-11.153c0-0.79,0.645-1.434,1.434-1.434h11.154
				c0.789,0,1.434,0.644,1.434,1.434v11.153c0,0.79-0.645,1.434-1.434,1.434H489.208z"/>
		</g>
		<g>
			<path fill="#FFFFFF" d="M500.362,149.988c0.526,0,0.955,0.429,0.955,0.956v11.153c0,0.526-0.429,0.955-0.955,0.955h-11.154
				c-0.526,0-0.956-0.429-0.956-0.955v-11.153c0-0.527,0.43-0.956,0.956-0.956H500.362 M500.362,149.033h-11.154
				c-1.055,0-1.911,0.855-1.911,1.911v11.153c0,1.056,0.856,1.911,1.911,1.911h11.154c1.055,0,1.911-0.855,1.911-1.911v-11.153
				C502.273,149.889,501.417,149.033,500.362,149.033L500.362,149.033z"/>
		</g>
		<g>
			<path fill="#271F3E" d="M472.469,163.531c-0.792,0-1.434-0.644-1.434-1.434v-11.153c0-0.79,0.642-1.434,1.434-1.434h11.151
				c0.792,0,1.435,0.644,1.435,1.434v11.153c0,0.79-0.643,1.434-1.435,1.434H472.469z"/>
		</g>
		<g>
			<path fill="#FFFFFF" d="M483.62,149.988c0.528,0,0.956,0.429,0.956,0.956v11.153c0,0.526-0.428,0.955-0.956,0.955h-11.151
				c-0.528,0-0.956-0.429-0.956-0.955v-11.153c0-0.527,0.428-0.956,0.956-0.956H483.62 M483.62,149.033h-11.151
				c-1.057,0-1.912,0.855-1.912,1.911v11.153c0,1.056,0.855,1.911,1.912,1.911h11.151c1.057,0,1.912-0.855,1.912-1.911v-11.153
				C485.532,149.889,484.677,149.033,483.62,149.033L483.62,149.033z"/>
		</g>
		<g>
			<path fill="#271F3E" d="M455.728,163.531c-0.79,0-1.435-0.644-1.435-1.434v-11.153c0-0.79,0.645-1.434,1.435-1.434h11.153
				c0.79,0,1.434,0.644,1.434,1.434v11.153c0,0.79-0.644,1.434-1.434,1.434H455.728z"/>
		</g>
		<g>
			<path fill="#FFFFFF" d="M466.881,149.988c0.526,0,0.956,0.429,0.956,0.956v11.153c0,0.526-0.43,0.955-0.956,0.955h-11.153
				c-0.526,0-0.956-0.429-0.956-0.955v-11.153c0-0.527,0.43-0.956,0.956-0.956H466.881 M466.881,149.033h-11.153
				c-1.056,0-1.912,0.855-1.912,1.911v11.153c0,1.056,0.856,1.911,1.912,1.911h11.153c1.055,0,1.912-0.855,1.912-1.911v-11.153
				C468.793,149.889,467.936,149.033,466.881,149.033L466.881,149.033z"/>
		</g>
		<g>
			<path fill="#271F3E" d="M438.985,163.531c-0.789,0-1.434-0.644-1.434-1.434v-11.153c0-0.79,0.645-1.434,1.434-1.434h11.154
				c0.791,0,1.434,0.644,1.434,1.434v11.153c0,0.79-0.643,1.434-1.434,1.434H438.985z"/>
		</g>
		<g>
			<path fill="#FFFFFF" d="M450.14,149.988c0.528,0,0.955,0.429,0.955,0.956v11.153c0,0.526-0.427,0.955-0.955,0.955h-11.154
				c-0.526,0-0.956-0.429-0.956-0.955v-11.153c0-0.527,0.43-0.956,0.956-0.956H450.14 M450.14,149.033h-11.154
				c-1.055,0-1.911,0.855-1.911,1.911v11.153c0,1.056,0.856,1.911,1.911,1.911h11.154c1.055,0,1.911-0.855,1.911-1.911v-11.153
				C452.051,149.889,451.194,149.033,450.14,149.033L450.14,149.033z"/>
		</g>
		<g>
			<path fill="#271F3E" d="M422.246,163.531c-0.792,0-1.434-0.644-1.434-1.434v-11.153c0-0.79,0.642-1.434,1.434-1.434h11.151
				c0.792,0,1.435,0.644,1.435,1.434v11.153c0,0.79-0.643,1.434-1.435,1.434H422.246z"/>
		</g>
		<g>
			<path fill="#FFFFFF" d="M433.397,149.988c0.528,0,0.956,0.429,0.956,0.956v11.153c0,0.526-0.428,0.955-0.956,0.955h-11.151
				c-0.528,0-0.956-0.429-0.956-0.955v-11.153c0-0.527,0.428-0.956,0.956-0.956H433.397 M433.397,149.033h-11.151
				c-1.057,0-1.912,0.855-1.912,1.911v11.153c0,1.056,0.855,1.911,1.912,1.911h11.151c1.057,0,1.912-0.855,1.912-1.911v-11.153
				C435.31,149.889,434.454,149.033,433.397,149.033L433.397,149.033z"/>
		</g>
		<g>
			<path fill="#271F3E" d="M405.505,163.531c-0.79,0-1.435-0.644-1.435-1.434v-11.153c0-0.79,0.645-1.434,1.435-1.434h11.153
				c0.79,0,1.434,0.644,1.434,1.434v11.153c0,0.79-0.644,1.434-1.434,1.434H405.505z"/>
		</g>
		<g>
			<path fill="#FFFFFF" d="M416.658,149.988c0.526,0,0.956,0.429,0.956,0.956v11.153c0,0.526-0.43,0.955-0.956,0.955h-11.153
				c-0.526,0-0.956-0.429-0.956-0.955v-11.153c0-0.527,0.43-0.956,0.956-0.956H416.658 M416.658,149.033h-11.153
				c-1.056,0-1.912,0.855-1.912,1.911v11.153c0,1.056,0.856,1.911,1.912,1.911h11.153c1.055,0,1.912-0.855,1.912-1.911v-11.153
				C418.57,149.889,417.713,149.033,416.658,149.033L416.658,149.033z"/>
		</g>
		<g>
			<path fill="#271F3E" d="M388.765,163.531c-0.791,0-1.434-0.644-1.434-1.434v-11.153c0-0.79,0.643-1.434,1.434-1.434h11.152
				c0.791,0,1.434,0.644,1.434,1.434v11.153c0,0.79-0.643,1.434-1.434,1.434H388.765z"/>
		</g>
		<g>
			<path fill="#FFFFFF" d="M399.917,149.988c0.528,0,0.955,0.429,0.955,0.956v11.153c0,0.526-0.427,0.955-0.955,0.955h-11.152
				c-0.528,0-0.956-0.429-0.956-0.955v-11.153c0-0.527,0.428-0.956,0.956-0.956H399.917 M399.917,149.033h-11.152
				c-1.057,0-1.911,0.855-1.911,1.911v11.153c0,1.056,0.854,1.911,1.911,1.911h11.152c1.057,0,1.911-0.855,1.911-1.911v-11.153
				C401.828,149.889,400.974,149.033,399.917,149.033L399.917,149.033z"/>
		</g>
		<g>
			<path fill="#271F3E" d="M372.023,163.531c-0.79,0-1.434-0.644-1.434-1.434v-11.153c0-0.79,0.644-1.434,1.434-1.434h11.153
				c0.79,0,1.434,0.644,1.434,1.434v11.153c0,0.79-0.644,1.434-1.434,1.434H372.023z"/>
		</g>
		<g>
			<path fill="#FFFFFF" d="M383.177,149.988c0.526,0,0.956,0.429,0.956,0.956v11.153c0,0.526-0.43,0.955-0.956,0.955h-11.153
				c-0.527,0-0.955-0.429-0.955-0.955v-11.153c0-0.527,0.428-0.956,0.955-0.956H383.177 M383.177,149.033h-11.153
				c-1.055,0-1.911,0.855-1.911,1.911v11.153c0,1.056,0.856,1.911,1.911,1.911h11.153c1.055,0,1.912-0.855,1.912-1.911v-11.153
				C385.089,149.889,384.231,149.033,383.177,149.033L383.177,149.033z"/>
		</g>
		<g>
			<path fill="#271F3E" d="M355.283,163.531c-0.791,0-1.434-0.644-1.434-1.434v-11.153c0-0.79,0.643-1.434,1.434-1.434h11.153
				c0.791,0,1.434,0.644,1.434,1.434v11.153c0,0.79-0.643,1.434-1.434,1.434H355.283z"/>
		</g>
		<g>
			<path fill="#FFFFFF" d="M366.436,149.988c0.527,0,0.956,0.429,0.956,0.956v11.153c0,0.526-0.428,0.955-0.956,0.955h-11.153
				c-0.527,0-0.956-0.429-0.956-0.955v-11.153c0-0.527,0.429-0.956,0.956-0.956H366.436 M366.436,149.033h-11.153
				c-1.056,0-1.912,0.855-1.912,1.911v11.153c0,1.056,0.856,1.911,1.912,1.911h11.153c1.056,0,1.912-0.855,1.912-1.911v-11.153
				C368.348,149.889,367.492,149.033,366.436,149.033L366.436,149.033z"/>
		</g>
		<g>
			<path fill="#271F3E" d="M338.543,163.531c-0.791,0-1.434-0.644-1.434-1.434v-11.153c0-0.79,0.643-1.434,1.434-1.434h11.152
				c0.791,0,1.434,0.644,1.434,1.434v11.153c0,0.79-0.644,1.434-1.434,1.434H338.543z"/>
		</g>
		<g>
			<path fill="#FFFFFF" d="M349.695,149.988c0.527,0,0.956,0.429,0.956,0.956v11.153c0,0.526-0.429,0.955-0.956,0.955h-11.152
				c-0.528,0-0.956-0.429-0.956-0.955v-11.153c0-0.527,0.428-0.956,0.956-0.956H349.695 M349.695,149.033h-11.152
				c-1.056,0-1.912,0.855-1.912,1.911v11.153c0,1.056,0.856,1.911,1.912,1.911h11.152c1.056,0,1.912-0.855,1.912-1.911v-11.153
				C351.607,149.889,350.751,149.033,349.695,149.033L349.695,149.033z"/>
		</g>
		<g>
			<path fill="#271F3E" d="M321.801,163.531c-0.791,0-1.434-0.644-1.434-1.434v-11.153c0-0.79,0.644-1.434,1.434-1.434h11.153
				c0.791,0,1.434,0.644,1.434,1.434v11.153c0,0.79-0.643,1.434-1.434,1.434H321.801z"/>
		</g>
		<g>
			<path fill="#FFFFFF" d="M332.955,149.988c0.528,0,0.956,0.429,0.956,0.956v11.153c0,0.526-0.428,0.955-0.956,0.955h-11.153
				c-0.527,0-0.956-0.429-0.956-0.955v-11.153c0-0.527,0.429-0.956,0.956-0.956H332.955 M332.955,149.033h-11.153
				c-1.055,0-1.912,0.855-1.912,1.911v11.153c0,1.056,0.857,1.911,1.912,1.911h11.153c1.055,0,1.912-0.855,1.912-1.911v-11.153
				C334.867,149.889,334.01,149.033,332.955,149.033L332.955,149.033z"/>
		</g>
		<g>
			<path fill="#271F3E" d="M305.061,163.531c-0.791,0-1.434-0.644-1.434-1.434v-11.153c0-0.79,0.643-1.434,1.434-1.434h11.153
				c0.791,0,1.434,0.644,1.434,1.434v11.153c0,0.79-0.643,1.434-1.434,1.434H305.061z"/>
		</g>
		<g>
			<path fill="#FFFFFF" d="M316.213,149.988c0.527,0,0.956,0.429,0.956,0.956v11.153c0,0.526-0.428,0.955-0.956,0.955h-11.153
				c-0.527,0-0.956-0.429-0.956-0.955v-11.153c0-0.527,0.428-0.956,0.956-0.956H316.213 M316.213,149.033h-11.153
				c-1.056,0-1.912,0.855-1.912,1.911v11.153c0,1.056,0.856,1.911,1.912,1.911h11.153c1.056,0,1.912-0.855,1.912-1.911v-11.153
				C318.125,149.889,317.269,149.033,316.213,149.033L316.213,149.033z"/>
		</g>
		<g>
			<path fill="#271F3E" d="M288.32,163.531c-0.791,0-1.434-0.644-1.434-1.434v-11.153c0-0.79,0.643-1.434,1.434-1.434h11.152
				c0.791,0,1.434,0.644,1.434,1.434v11.153c0,0.79-0.644,1.434-1.434,1.434H288.32z"/>
		</g>
		<g>
			<path fill="#FFFFFF" d="M299.473,149.988c0.527,0,0.956,0.429,0.956,0.956v11.153c0,0.526-0.429,0.955-0.956,0.955H288.32
				c-0.528,0-0.956-0.429-0.956-0.955v-11.153c0-0.527,0.428-0.956,0.956-0.956H299.473 M299.473,149.033H288.32
				c-1.056,0-1.912,0.855-1.912,1.911v11.153c0,1.056,0.856,1.911,1.912,1.911h11.152c1.056,0,1.912-0.855,1.912-1.911v-11.153
				C301.385,149.889,300.528,149.033,299.473,149.033L299.473,149.033z"/>
		</g>
		<g>
			<path fill="#271F3E" d="M292.462,180.1c-0.791,0-1.434-0.643-1.434-1.434v-11.152c0-0.791,0.643-1.434,1.434-1.434h11.153
				c0.791,0,1.434,0.643,1.434,1.434v11.152c0,0.791-0.643,1.434-1.434,1.434H292.462z"/>
		</g>
		<g>
			<path fill="#FFFFFF" d="M303.615,166.558c0.527,0,0.956,0.43,0.956,0.956v11.152c0,0.527-0.429,0.956-0.956,0.956h-11.153
				c-0.527,0-0.956-0.429-0.956-0.956v-11.152c0-0.526,0.428-0.956,0.956-0.956H303.615 M303.615,165.602h-11.153
				c-1.056,0-1.912,0.856-1.912,1.912v11.152c0,1.056,0.856,1.912,1.912,1.912h11.153c1.056,0,1.912-0.856,1.912-1.912v-11.152
				C305.526,166.458,304.67,165.602,303.615,165.602L303.615,165.602z"/>
		</g>
		<g>
			<path fill="#271F3E" d="M300.746,196.351c-0.791,0-1.434-0.644-1.434-1.435v-11.152c0-0.79,0.643-1.434,1.434-1.434h11.152
				c0.791,0,1.434,0.644,1.434,1.434v11.152c0,0.791-0.643,1.435-1.434,1.435H300.746z"/>
		</g>
		<g>
			<path fill="#FFFFFF" d="M311.898,182.808c0.527,0,0.956,0.43,0.956,0.956v11.152c0,0.528-0.429,0.956-0.956,0.956h-11.152
				c-0.527,0-0.956-0.428-0.956-0.956v-11.152c0-0.526,0.429-0.956,0.956-0.956H311.898 M311.898,181.852h-11.152
				c-1.056,0-1.912,0.856-1.912,1.912v11.152c0,1.057,0.856,1.912,1.912,1.912h11.152c1.056,0,1.912-0.855,1.912-1.912v-11.152
				C313.811,182.708,312.955,181.852,311.898,181.852L311.898,181.852z"/>
		</g>
		<g>
			<path fill="#271F3E" d="M263.188,215.15c-0.813,0-1.475-0.771-1.475-1.719v-12.813c0-0.947,0.662-1.719,1.475-1.719h11.389
				c0.813,0,1.475,0.771,1.475,1.719v12.813c0,0.947-0.662,1.719-1.475,1.719H263.188z"/>
		</g>
		<g>
			<path fill="#FFFFFF" d="M274.576,199.378c0.55,0,0.997,0.556,0.997,1.24v12.813c0,0.685-0.447,1.24-0.997,1.24h-11.389
				c-0.55,0-0.997-0.556-0.997-1.24v-12.813c0-0.685,0.447-1.24,0.997-1.24H274.576 M274.576,198.422h-11.389
				c-1.079,0-1.953,0.984-1.953,2.196v12.813c0,1.213,0.875,2.196,1.953,2.196h11.389c1.078,0,1.953-0.983,1.953-2.196v-12.813
				C276.529,199.406,275.654,198.422,274.576,198.422L274.576,198.422z"/>
		</g>
		<g>
			<path fill="#271F3E" d="M279.438,215.15c-0.813,0-1.475-0.771-1.475-1.719v-12.813c0-0.947,0.662-1.719,1.475-1.719h11.389
				c0.813,0,1.475,0.771,1.475,1.719v12.813c0,0.947-0.662,1.719-1.475,1.719H279.438z"/>
		</g>
		<g>
			<path fill="#FFFFFF" d="M290.827,199.378c0.55,0,0.997,0.556,0.997,1.24v12.813c0,0.685-0.447,1.24-0.997,1.24h-11.389
				c-0.55,0-0.997-0.556-0.997-1.24v-12.813c0-0.685,0.447-1.24,0.997-1.24H290.827 M290.827,198.422h-11.389
				c-1.079,0-1.953,0.984-1.953,2.196v12.813c0,1.213,0.875,2.196,1.953,2.196h11.389c1.078,0,1.953-0.983,1.953-2.196v-12.813
				C292.779,199.406,291.905,198.422,290.827,198.422L290.827,198.422z"/>
		</g>
		<g>
			<path fill="#271F3E" d="M296.644,215.15c-0.813,0-1.475-0.771-1.475-1.719v-12.813c0-0.947,0.662-1.719,1.475-1.719h11.389
				c0.813,0,1.475,0.771,1.475,1.719v12.813c0,0.947-0.662,1.719-1.475,1.719H296.644z"/>
		</g>
		<g>
			<path fill="#FFFFFF" d="M308.033,199.378c0.55,0,0.997,0.556,0.997,1.24v12.813c0,0.685-0.447,1.24-0.997,1.24h-11.389
				c-0.55,0-0.997-0.556-0.997-1.24v-12.813c0-0.685,0.447-1.24,0.997-1.24H308.033 M308.033,198.422h-11.389
				c-1.078,0-1.953,0.984-1.953,2.196v12.813c0,1.213,0.875,2.196,1.953,2.196h11.389c1.078,0,1.953-0.983,1.953-2.196v-12.813
				C309.986,199.406,309.111,198.422,308.033,198.422L308.033,198.422z"/>
		</g>
		<g>
			<path fill="#271F3E" d="M317.528,196.351c-0.791,0-1.434-0.644-1.434-1.435v-11.152c0-0.79,0.643-1.434,1.434-1.434h11.152
				c0.791,0,1.434,0.644,1.434,1.434v11.152c0,0.791-0.644,1.435-1.434,1.435H317.528z"/>
		</g>
		<g>
			<path fill="#FFFFFF" d="M328.68,182.808c0.527,0,0.956,0.43,0.956,0.956v11.152c0,0.528-0.429,0.956-0.956,0.956h-11.152
				c-0.528,0-0.956-0.428-0.956-0.956v-11.152c0-0.526,0.428-0.956,0.956-0.956H328.68 M328.68,181.852h-11.152
				c-1.056,0-1.912,0.856-1.912,1.912v11.152c0,1.057,0.856,1.912,1.912,1.912h11.152c1.056,0,1.912-0.855,1.912-1.912v-11.152
				C330.592,182.708,329.736,181.852,328.68,181.852L328.68,181.852z"/>
		</g>
		<g>
			<path fill="#271F3E" d="M334.309,196.351c-0.791,0-1.434-0.644-1.434-1.435v-11.152c0-0.79,0.643-1.434,1.434-1.434h11.153
				c0.791,0,1.434,0.644,1.434,1.434v11.152c0,0.791-0.643,1.435-1.434,1.435H334.309z"/>
		</g>
		<g>
			<path fill="#FFFFFF" d="M345.462,182.808c0.527,0,0.956,0.43,0.956,0.956v11.152c0,0.528-0.429,0.956-0.956,0.956h-11.153
				c-0.527,0-0.956-0.428-0.956-0.956v-11.152c0-0.526,0.428-0.956,0.956-0.956H345.462 M345.462,181.852h-11.153
				c-1.056,0-1.912,0.856-1.912,1.912v11.152c0,1.057,0.856,1.912,1.912,1.912h11.153c1.056,0,1.912-0.855,1.912-1.912v-11.152
				C347.374,182.708,346.518,181.852,345.462,181.852L345.462,181.852z"/>
		</g>
		<g>
			<path fill="#271F3E" d="M351.091,196.351c-0.791,0-1.434-0.644-1.434-1.435v-11.152c0-0.79,0.643-1.434,1.434-1.434h11.153
				c0.791,0,1.434,0.644,1.434,1.434v11.152c0,0.791-0.643,1.435-1.434,1.435H351.091z"/>
		</g>
		<g>
			<path fill="#FFFFFF" d="M362.244,182.808c0.527,0,0.956,0.43,0.956,0.956v11.152c0,0.528-0.428,0.956-0.956,0.956h-11.153
				c-0.527,0-0.956-0.428-0.956-0.956v-11.152c0-0.526,0.428-0.956,0.956-0.956H362.244 M362.244,181.852h-11.153
				c-1.056,0-1.912,0.856-1.912,1.912v11.152c0,1.057,0.856,1.912,1.912,1.912h11.153c1.056,0,1.912-0.855,1.912-1.912v-11.152
				C364.155,182.708,363.299,181.852,362.244,181.852L362.244,181.852z"/>
		</g>
		<g>
			<path fill="#271F3E" d="M367.872,196.351c-0.791,0-1.434-0.644-1.434-1.435v-11.152c0-0.79,0.643-1.434,1.434-1.434h11.153
				c0.792,0,1.435,0.644,1.435,1.434v11.152c0,0.791-0.643,1.435-1.435,1.435H367.872z"/>
		</g>
		<g>
			<path fill="#FFFFFF" d="M379.024,182.808c0.528,0,0.956,0.43,0.956,0.956v11.152c0,0.528-0.428,0.956-0.956,0.956h-11.153
				c-0.527,0-0.956-0.428-0.956-0.956v-11.152c0-0.526,0.429-0.956,0.956-0.956H379.024 M379.024,181.852h-11.153
				c-1.055,0-1.912,0.856-1.912,1.912v11.152c0,1.057,0.857,1.912,1.912,1.912h11.153c1.056,0,1.912-0.855,1.912-1.912v-11.152
				C380.937,182.708,380.08,181.852,379.024,181.852L379.024,181.852z"/>
		</g>
		<g>
			<path fill="#271F3E" d="M384.653,196.351c-0.789,0-1.434-0.644-1.434-1.435v-11.152c0-0.79,0.645-1.434,1.434-1.434h11.152
				c0.791,0,1.434,0.644,1.434,1.434v11.152c0,0.791-0.643,1.435-1.434,1.435H384.653z"/>
		</g>
		<g>
			<path fill="#FFFFFF" d="M395.806,182.808c0.528,0,0.956,0.43,0.956,0.956v11.152c0,0.528-0.428,0.956-0.956,0.956h-11.152
				c-0.526,0-0.955-0.428-0.955-0.956v-11.152c0-0.526,0.429-0.956,0.955-0.956H395.806 M395.806,181.852h-11.152
				c-1.057,0-1.911,0.856-1.911,1.912v11.152c0,1.057,0.854,1.912,1.911,1.912h11.152c1.057,0,1.911-0.855,1.911-1.912v-11.152
				C397.717,182.708,396.862,181.852,395.806,181.852L395.806,181.852z"/>
		</g>
		<g>
			<path fill="#271F3E" d="M401.435,196.351c-0.79,0-1.434-0.644-1.434-1.435v-11.152c0-0.79,0.644-1.434,1.434-1.434h11.153
				c0.79,0,1.434,0.644,1.434,1.434v11.152c0,0.791-0.644,1.435-1.434,1.435H401.435z"/>
		</g>
		<g>
			<path fill="#FFFFFF" d="M412.588,182.808c0.526,0,0.956,0.43,0.956,0.956v11.152c0,0.528-0.43,0.956-0.956,0.956h-11.153
				c-0.526,0-0.956-0.428-0.956-0.956v-11.152c0-0.526,0.43-0.956,0.956-0.956H412.588 M412.588,181.852h-11.153
				c-1.055,0-1.912,0.856-1.912,1.912v11.152c0,1.057,0.857,1.912,1.912,1.912h11.153c1.055,0,1.912-0.855,1.912-1.912v-11.152
				C414.5,182.708,413.643,181.852,412.588,181.852L412.588,181.852z"/>
		</g>
		<g>
			<path fill="#271F3E" d="M418.217,196.351c-0.791,0-1.434-0.644-1.434-1.435v-11.152c0-0.79,0.643-1.434,1.434-1.434h11.152
				c0.791,0,1.434,0.644,1.434,1.434v11.152c0,0.791-0.643,1.435-1.434,1.435H418.217z"/>
		</g>
		<g>
			<path fill="#FFFFFF" d="M429.369,182.808c0.528,0,0.955,0.43,0.955,0.956v11.152c0,0.528-0.427,0.956-0.955,0.956h-11.152
				c-0.528,0-0.956-0.428-0.956-0.956v-11.152c0-0.526,0.428-0.956,0.956-0.956H429.369 M429.369,181.852h-11.152
				c-1.057,0-1.911,0.856-1.911,1.912v11.152c0,1.057,0.854,1.912,1.911,1.912h11.152c1.057,0,1.911-0.855,1.911-1.912v-11.152
				C431.28,182.708,430.426,181.852,429.369,181.852L429.369,181.852z"/>
		</g>
		<g>
			<path fill="#271F3E" d="M434.998,196.351c-0.79,0-1.435-0.644-1.435-1.435v-11.152c0-0.79,0.645-1.434,1.435-1.434h11.153
				c0.79,0,1.434,0.644,1.434,1.434v11.152c0,0.791-0.644,1.435-1.434,1.435H434.998z"/>
		</g>
		<g>
			<path fill="#FFFFFF" d="M446.151,182.808c0.526,0,0.956,0.43,0.956,0.956v11.152c0,0.528-0.43,0.956-0.956,0.956h-11.153
				c-0.526,0-0.956-0.428-0.956-0.956v-11.152c0-0.526,0.43-0.956,0.956-0.956H446.151 M446.151,181.852h-11.153
				c-1.055,0-1.912,0.856-1.912,1.912v11.152c0,1.057,0.857,1.912,1.912,1.912h11.153c1.055,0,1.912-0.855,1.912-1.912v-11.152
				C448.063,182.708,447.206,181.852,446.151,181.852L446.151,181.852z"/>
		</g>
		<g>
			<path fill="#271F3E" d="M451.78,196.351c-0.792,0-1.434-0.644-1.434-1.435v-11.152c0-0.79,0.642-1.434,1.434-1.434h11.151
				c0.792,0,1.435,0.644,1.435,1.434v11.152c0,0.791-0.643,1.435-1.435,1.435H451.78z"/>
		</g>
		<g>
			<path fill="#FFFFFF" d="M462.932,182.808c0.528,0,0.956,0.43,0.956,0.956v11.152c0,0.528-0.428,0.956-0.956,0.956H451.78
				c-0.528,0-0.956-0.428-0.956-0.956v-11.152c0-0.526,0.428-0.956,0.956-0.956H462.932 M462.932,181.852H451.78
				c-1.057,0-1.912,0.856-1.912,1.912v11.152c0,1.057,0.855,1.912,1.912,1.912h11.151c1.057,0,1.912-0.855,1.912-1.912v-11.152
				C464.844,182.708,463.988,181.852,462.932,181.852L462.932,181.852z"/>
		</g>
		<g>
			<path fill="#271F3E" d="M309.19,180.1c-0.791,0-1.434-0.643-1.434-1.434v-11.152c0-0.791,0.643-1.434,1.434-1.434h11.153
				c0.791,0,1.434,0.643,1.434,1.434v11.152c0,0.791-0.643,1.434-1.434,1.434H309.19z"/>
		</g>
		<g>
			<path fill="#FFFFFF" d="M320.343,166.558c0.527,0,0.956,0.43,0.956,0.956v11.152c0,0.527-0.428,0.956-0.956,0.956H309.19
				c-0.527,0-0.956-0.429-0.956-0.956v-11.152c0-0.526,0.429-0.956,0.956-0.956H320.343 M320.343,165.602H309.19
				c-1.056,0-1.912,0.856-1.912,1.912v11.152c0,1.056,0.856,1.912,1.912,1.912h11.153c1.056,0,1.912-0.856,1.912-1.912v-11.152
				C322.255,166.458,321.399,165.602,320.343,165.602L320.343,165.602z"/>
		</g>
		<g>
			<path fill="#271F3E" d="M325.919,180.1c-0.791,0-1.434-0.643-1.434-1.434v-11.152c0-0.791,0.644-1.434,1.434-1.434h11.152
				c0.791,0,1.434,0.643,1.434,1.434v11.152c0,0.791-0.643,1.434-1.434,1.434H325.919z"/>
		</g>
		<g>
			<path fill="#FFFFFF" d="M337.071,166.558c0.528,0,0.956,0.43,0.956,0.956v11.152c0,0.527-0.428,0.956-0.956,0.956h-11.152
				c-0.527,0-0.956-0.429-0.956-0.956v-11.152c0-0.526,0.429-0.956,0.956-0.956H337.071 M337.071,165.602h-11.152
				c-1.056,0-1.912,0.856-1.912,1.912v11.152c0,1.056,0.856,1.912,1.912,1.912h11.152c1.056,0,1.912-0.856,1.912-1.912v-11.152
				C338.983,166.458,338.127,165.602,337.071,165.602L337.071,165.602z"/>
		</g>
		<g>
			<path fill="#271F3E" d="M342.647,180.1c-0.791,0-1.434-0.643-1.434-1.434v-11.152c0-0.791,0.643-1.434,1.434-1.434H353.8
				c0.791,0,1.434,0.643,1.434,1.434v11.152c0,0.791-0.643,1.434-1.434,1.434H342.647z"/>
		</g>
		<g>
			<path fill="#FFFFFF" d="M353.8,166.558c0.527,0,0.956,0.43,0.956,0.956v11.152c0,0.527-0.429,0.956-0.956,0.956h-11.152
				c-0.527,0-0.956-0.429-0.956-0.956v-11.152c0-0.526,0.429-0.956,0.956-0.956H353.8 M353.8,165.602h-11.152
				c-1.056,0-1.912,0.856-1.912,1.912v11.152c0,1.056,0.856,1.912,1.912,1.912H353.8c1.056,0,1.912-0.856,1.912-1.912v-11.152
				C355.712,166.458,354.856,165.602,353.8,165.602L353.8,165.602z"/>
		</g>
		<g>
			<path fill="#271F3E" d="M359.376,180.1c-0.791,0-1.434-0.643-1.434-1.434v-11.152c0-0.791,0.643-1.434,1.434-1.434h11.152
				c0.791,0,1.435,0.643,1.435,1.434v11.152c0,0.791-0.644,1.434-1.435,1.434H359.376z"/>
		</g>
		<g>
			<path fill="#FFFFFF" d="M370.528,166.558c0.527,0,0.956,0.43,0.956,0.956v11.152c0,0.527-0.429,0.956-0.956,0.956h-11.152
				c-0.527,0-0.956-0.429-0.956-0.956v-11.152c0-0.526,0.429-0.956,0.956-0.956H370.528 M370.528,165.602h-11.152
				c-1.056,0-1.912,0.856-1.912,1.912v11.152c0,1.056,0.856,1.912,1.912,1.912h11.152c1.056,0,1.912-0.856,1.912-1.912v-11.152
				C372.44,166.458,371.584,165.602,370.528,165.602L370.528,165.602z"/>
		</g>
		<g>
			<path fill="#271F3E" d="M376.104,180.1c-0.791,0-1.435-0.643-1.435-1.434v-11.152c0-0.791,0.644-1.434,1.435-1.434h11.151
				c0.792,0,1.435,0.643,1.435,1.434v11.152c0,0.791-0.643,1.434-1.435,1.434H376.104z"/>
		</g>
		<g>
			<path fill="#FFFFFF" d="M387.256,166.558c0.529,0,0.956,0.43,0.956,0.956v11.152c0,0.527-0.427,0.956-0.956,0.956h-11.151
				c-0.528,0-0.956-0.429-0.956-0.956v-11.152c0-0.526,0.428-0.956,0.956-0.956H387.256 M387.256,165.602h-11.151
				c-1.056,0-1.912,0.856-1.912,1.912v11.152c0,1.056,0.856,1.912,1.912,1.912h11.151c1.058,0,1.912-0.856,1.912-1.912v-11.152
				C389.168,166.458,388.313,165.602,387.256,165.602L387.256,165.602z"/>
		</g>
		<g>
			<path fill="#271F3E" d="M392.833,180.1c-0.792,0-1.434-0.643-1.434-1.434v-11.152c0-0.791,0.642-1.434,1.434-1.434h11.151
				c0.792,0,1.435,0.643,1.435,1.434v11.152c0,0.791-0.643,1.434-1.435,1.434H392.833z"/>
		</g>
		<g>
			<path fill="#FFFFFF" d="M403.984,166.558c0.529,0,0.956,0.43,0.956,0.956v11.152c0,0.527-0.427,0.956-0.956,0.956h-11.151
				c-0.528,0-0.956-0.429-0.956-0.956v-11.152c0-0.526,0.428-0.956,0.956-0.956H403.984 M403.984,165.602h-11.151
				c-1.057,0-1.912,0.856-1.912,1.912v11.152c0,1.056,0.855,1.912,1.912,1.912h11.151c1.058,0,1.912-0.856,1.912-1.912v-11.152
				C405.896,166.458,405.042,165.602,403.984,165.602L403.984,165.602z"/>
		</g>
		<g>
			<path fill="#271F3E" d="M409.562,180.1c-0.792,0-1.434-0.643-1.434-1.434v-11.152c0-0.791,0.642-1.434,1.434-1.434h11.151
				c0.792,0,1.435,0.643,1.435,1.434v11.152c0,0.791-0.643,1.434-1.435,1.434H409.562z"/>
		</g>
		<g>
			<path fill="#FFFFFF" d="M420.713,166.558c0.528,0,0.956,0.43,0.956,0.956v11.152c0,0.527-0.428,0.956-0.956,0.956h-11.151
				c-0.528,0-0.956-0.429-0.956-0.956v-11.152c0-0.526,0.428-0.956,0.956-0.956H420.713 M420.713,165.602h-11.151
				c-1.057,0-1.912,0.856-1.912,1.912v11.152c0,1.056,0.855,1.912,1.912,1.912h11.151c1.057,0,1.912-0.856,1.912-1.912v-11.152
				C422.625,166.458,421.77,165.602,420.713,165.602L420.713,165.602z"/>
		</g>
		<g>
			<path fill="#271F3E" d="M426.29,180.1c-0.792,0-1.434-0.643-1.434-1.434v-11.152c0-0.791,0.642-1.434,1.434-1.434h11.151
				c0.792,0,1.435,0.643,1.435,1.434v11.152c0,0.791-0.643,1.434-1.435,1.434H426.29z"/>
		</g>
		<g>
			<path fill="#FFFFFF" d="M437.441,166.558c0.528,0,0.956,0.43,0.956,0.956v11.152c0,0.527-0.428,0.956-0.956,0.956H426.29
				c-0.528,0-0.956-0.429-0.956-0.956v-11.152c0-0.526,0.428-0.956,0.956-0.956H437.441 M437.441,165.602H426.29
				c-1.057,0-1.912,0.856-1.912,1.912v11.152c0,1.056,0.855,1.912,1.912,1.912h11.151c1.057,0,1.912-0.856,1.912-1.912v-11.152
				C439.354,166.458,438.498,165.602,437.441,165.602L437.441,165.602z"/>
		</g>
		<g>
			<path fill="#271F3E" d="M443.019,180.1c-0.792,0-1.434-0.643-1.434-1.434v-11.152c0-0.791,0.642-1.434,1.434-1.434h11.151
				c0.792,0,1.434,0.643,1.434,1.434v11.152c0,0.791-0.642,1.434-1.434,1.434H443.019z"/>
		</g>
		<g>
			<path fill="#FFFFFF" d="M454.17,166.558c0.528,0,0.956,0.43,0.956,0.956v11.152c0,0.527-0.428,0.956-0.956,0.956h-11.151
				c-0.528,0-0.956-0.429-0.956-0.956v-11.152c0-0.526,0.428-0.956,0.956-0.956H454.17 M454.17,165.602h-11.151
				c-1.057,0-1.912,0.856-1.912,1.912v11.152c0,1.056,0.855,1.912,1.912,1.912h11.151c1.057,0,1.912-0.856,1.912-1.912v-11.152
				C456.082,166.458,455.227,165.602,454.17,165.602L454.17,165.602z"/>
		</g>
		<g>
			<path fill="#271F3E" d="M459.747,180.1c-0.792,0-1.435-0.643-1.435-1.434v-11.152c0-0.791,0.643-1.434,1.435-1.434h11.151
				c0.792,0,1.434,0.643,1.434,1.434v11.152c0,0.791-0.642,1.434-1.434,1.434H459.747z"/>
		</g>
		<g>
			<path fill="#FFFFFF" d="M470.898,166.558c0.528,0,0.956,0.43,0.956,0.956v11.152c0,0.527-0.428,0.956-0.956,0.956h-11.151
				c-0.528,0-0.956-0.429-0.956-0.956v-11.152c0-0.526,0.428-0.956,0.956-0.956H470.898 M470.898,165.602h-11.151
				c-1.057,0-1.912,0.856-1.912,1.912v11.152c0,1.056,0.855,1.912,1.912,1.912h11.151c1.057,0,1.912-0.856,1.912-1.912v-11.152
				C472.811,166.458,471.955,165.602,470.898,165.602L470.898,165.602z"/>
		</g>
		<g>
			<path fill="#271F3E" d="M262.977,163.531c-0.791,0-1.434-0.644-1.434-1.434v-11.153c0-0.79,0.643-1.434,1.434-1.434h19.755
				c0.791,0,1.434,0.644,1.434,1.434v11.153c0,0.79-0.643,1.434-1.434,1.434H262.977z"/>
		</g>
		<g>
			<path fill="#FFFFFF" d="M282.732,149.988c0.528,0,0.956,0.429,0.956,0.956v11.153c0,0.526-0.428,0.955-0.956,0.955h-19.755
				c-0.528,0-0.956-0.429-0.956-0.955v-11.153c0-0.527,0.428-0.956,0.956-0.956H282.732 M282.732,149.033h-19.755
				c-1.056,0-1.912,0.855-1.912,1.911v11.153c0,1.056,0.856,1.911,1.912,1.911h19.755c1.056,0,1.912-0.855,1.912-1.911v-11.153
				C284.644,149.889,283.788,149.033,282.732,149.033L282.732,149.033z"/>
		</g>
		<g>
			<path fill="#271F3E" d="M262.977,179.781c-0.791,0-1.434-0.643-1.434-1.434v-10.515c0-0.791,0.643-1.435,1.434-1.435h23.579
				c0.791,0,1.434,0.644,1.434,1.435v10.515c0,0.791-0.643,1.434-1.434,1.434H262.977z"/>
		</g>
		<g>
			<path fill="#FFFFFF" d="M286.556,166.877c0.527,0,0.956,0.43,0.956,0.956v10.515c0,0.526-0.429,0.956-0.956,0.956h-23.579
				c-0.528,0-0.956-0.43-0.956-0.956v-10.515c0-0.526,0.428-0.956,0.956-0.956H286.556 M286.556,165.921h-23.579
				c-1.056,0-1.912,0.856-1.912,1.912v10.515c0,1.056,0.856,1.912,1.912,1.912h23.579c1.056,0,1.912-0.856,1.912-1.912v-10.515
				C288.468,166.777,287.611,165.921,286.556,165.921L286.556,165.921z"/>
		</g>
		<g>
			<path fill="#271F3E" d="M476.145,179.781c-0.791,0-1.434-0.643-1.434-1.434v-11.152c0-0.791,0.643-1.434,1.434-1.434h24.218
				c0.789,0,1.434,0.643,1.434,1.434v11.152c0,0.791-0.645,1.434-1.434,1.434H476.145z"/>
		</g>
		<g>
			<path fill="#FFFFFF" d="M500.362,166.239c0.526,0,0.955,0.429,0.955,0.956v11.152c0,0.526-0.429,0.956-0.955,0.956h-24.218
				c-0.528,0-0.955-0.43-0.955-0.956v-11.152c0-0.527,0.427-0.956,0.955-0.956H500.362 M500.362,165.283h-24.218
				c-1.057,0-1.911,0.856-1.911,1.912v11.152c0,1.056,0.854,1.912,1.911,1.912h24.218c1.055,0,1.911-0.856,1.911-1.912v-11.152
				C502.273,166.14,501.417,165.283,500.362,165.283L500.362,165.283z"/>
		</g>
		<g>
			<path fill="#271F3E" d="M263.295,196.032c-0.791,0-1.434-0.644-1.434-1.435v-10.833c0-0.79,0.643-1.434,1.434-1.434h31.864
				c0.791,0,1.434,0.644,1.434,1.434v10.833c0,0.791-0.643,1.435-1.434,1.435H263.295z"/>
		</g>
		<g>
			<path fill="#FFFFFF" d="M295.159,182.809c0.527,0,0.956,0.429,0.956,0.956v10.833c0,0.528-0.428,0.956-0.956,0.956h-31.864
				c-0.527,0-0.956-0.428-0.956-0.956v-10.833c0-0.527,0.428-0.956,0.956-0.956H295.159 M295.159,181.854h-31.864
				c-1.056,0-1.912,0.855-1.912,1.911v10.833c0,1.057,0.856,1.912,1.912,1.912h31.864c1.056,0,1.912-0.855,1.912-1.912v-10.833
				C297.071,182.709,296.215,181.854,295.159,181.854L295.159,181.854z"/>
		</g>
		<g>
			<path fill="#271F3E" d="M468.179,196.351c-0.79,0-1.435-0.644-1.435-1.435v-11.151c0-0.79,0.645-1.434,1.435-1.434h31.864
				c0.789,0,1.434,0.644,1.434,1.434v11.151c0,0.791-0.645,1.435-1.434,1.435H468.179z"/>
		</g>
		<g>
			<path fill="#FFFFFF" d="M500.043,182.809c0.526,0,0.955,0.429,0.955,0.956v11.151c0,0.528-0.429,0.956-0.955,0.956h-31.864
				c-0.527,0-0.956-0.428-0.956-0.956v-11.151c0-0.527,0.429-0.956,0.956-0.956H500.043 M500.043,181.854h-31.864
				c-1.056,0-1.912,0.855-1.912,1.911v11.151c0,1.057,0.856,1.912,1.912,1.912h31.864c1.055,0,1.911-0.855,1.911-1.912v-11.151
				C501.954,182.709,501.098,181.854,500.043,181.854L500.043,181.854z"/>
		</g>
		<g>
			<path fill="#271F3E" d="M313.64,214.832c-0.791,0-1.434-0.644-1.434-1.434v-13.383c0-0.791,0.644-1.435,1.434-1.435h14.976
				c0.791,0,1.434,0.644,1.434,1.435v13.383c0,0.79-0.643,1.434-1.434,1.434H313.64z"/>
		</g>
		<g>
			<path fill="#FFFFFF" d="M328.616,199.06c0.527,0,0.956,0.429,0.956,0.956v13.383c0,0.527-0.429,0.955-0.956,0.955H313.64
				c-0.527,0-0.956-0.428-0.956-0.955v-13.383c0-0.527,0.429-0.956,0.956-0.956H328.616 M328.616,198.104H313.64
				c-1.056,0-1.912,0.856-1.912,1.912v13.383c0,1.056,0.856,1.911,1.912,1.911h14.976c1.056,0,1.912-0.855,1.912-1.911v-13.383
				C330.528,198.96,329.672,198.104,328.616,198.104L328.616,198.104z"/>
		</g>
		<g>
			<path fill="#271F3E" d="M417.515,214.832c-0.789,0-1.434-0.644-1.434-1.434v-13.383c0-0.791,0.645-1.435,1.434-1.435h14.978
				c0.79,0,1.434,0.644,1.434,1.435v13.383c0,0.79-0.644,1.434-1.434,1.434H417.515z"/>
		</g>
		<g>
			<path fill="#FFFFFF" d="M432.492,199.06c0.526,0,0.956,0.429,0.956,0.956v13.383c0,0.527-0.43,0.955-0.956,0.955h-14.978
				c-0.526,0-0.955-0.428-0.955-0.955v-13.383c0-0.527,0.429-0.956,0.955-0.956H432.492 M432.492,198.104h-14.978
				c-1.055,0-1.911,0.856-1.911,1.912v13.383c0,1.056,0.856,1.911,1.911,1.911h14.978c1.055,0,1.912-0.855,1.912-1.911v-13.383
				C434.404,198.96,433.547,198.104,432.492,198.104L432.492,198.104z"/>
		</g>
		<g>
			<path fill="#271F3E" d="M439.184,214.832c-0.792,0-1.434-0.644-1.434-1.434v-13.383c0-0.791,0.642-1.435,1.434-1.435h10.832
				c0.792,0,1.435,0.644,1.435,1.435v13.383c0,0.79-0.643,1.434-1.435,1.434H439.184z"/>
		</g>
		<g>
			<path fill="#FFFFFF" d="M450.016,199.06c0.528,0,0.956,0.429,0.956,0.956v13.383c0,0.527-0.428,0.955-0.956,0.955h-10.832
				c-0.528,0-0.956-0.428-0.956-0.955v-13.383c0-0.527,0.428-0.956,0.956-0.956H450.016 M450.016,198.104h-10.832
				c-1.057,0-1.912,0.856-1.912,1.912v13.383c0,1.056,0.855,1.911,1.912,1.911h10.832c1.057,0,1.912-0.855,1.912-1.911v-13.383
				C451.928,198.96,451.072,198.104,450.016,198.104L450.016,198.104z"/>
		</g>
		<g>
			<path fill="#271F3E" d="M455.752,214.832c-0.79,0-1.435-0.644-1.435-1.434v-5.1c0-0.79,0.645-1.434,1.435-1.434h11.153
				c0.789,0,1.434,0.644,1.434,1.434v5.1c0,0.79-0.645,1.434-1.434,1.434H455.752z"/>
		</g>
		<g>
			<path fill="#FFFFFF" d="M466.905,207.344c0.526,0,0.956,0.428,0.956,0.955v5.1c0,0.527-0.43,0.955-0.956,0.955h-11.153
				c-0.527,0-0.956-0.428-0.956-0.955v-5.1c0-0.527,0.429-0.955,0.956-0.955H466.905 M466.905,206.388h-11.153
				c-1.056,0-1.912,0.855-1.912,1.911v5.1c0,1.056,0.856,1.911,1.912,1.911h11.153c1.055,0,1.911-0.855,1.911-1.911v-5.1
				C468.816,207.243,467.96,206.388,466.905,206.388L466.905,206.388z"/>
		</g>
		<g>
			<path fill="#271F3E" d="M472.407,214.832c-0.839,0-1.52-0.644-1.52-1.434v-13.383c0-0.791,0.681-1.435,1.52-1.435h10.66
				c0.839,0,1.522,0.644,1.522,1.435v13.383c0,0.79-0.684,1.434-1.522,1.434H472.407z"/>
		</g>
		<g>
			<path fill="#FFFFFF" d="M483.067,199.06c0.575,0,1.044,0.429,1.044,0.956v13.383c0,0.527-0.469,0.955-1.044,0.955h-10.66
				c-0.575,0-1.042-0.428-1.042-0.955v-13.383c0-0.527,0.467-0.956,1.042-0.956H483.067 M483.067,198.104h-10.66
				c-1.104,0-1.998,0.856-1.998,1.912v13.383c0,1.056,0.895,1.911,1.998,1.911h10.66c1.104,0,2-0.855,2-1.911v-13.383
				C485.067,198.96,484.171,198.104,483.067,198.104L483.067,198.104z"/>
		</g>
		<g>
			<path fill="#271F3E" d="M489.298,214.832c-0.838,0-1.521-0.644-1.521-1.434v-5.1c0-0.79,0.684-1.434,1.521-1.434h10.338
				c0.838,0,1.521,0.644,1.521,1.434v5.1c0,0.79-0.684,1.434-1.521,1.434H489.298z"/>
		</g>
		<g>
			<path fill="#FFFFFF" d="M499.636,207.344c0.575,0,1.044,0.428,1.044,0.955v5.1c0,0.527-0.469,0.955-1.044,0.955h-10.338
				c-0.575,0-1.044-0.428-1.044-0.955v-5.1c0-0.527,0.469-0.955,1.044-0.955H499.636 M499.636,206.388h-10.338
				c-1.104,0-1.999,0.855-1.999,1.911v5.1c0,1.056,0.896,1.911,1.999,1.911h10.338c1.104,0,1.999-0.855,1.999-1.911v-5.1
				C501.635,207.243,500.739,206.388,499.636,206.388L499.636,206.388z"/>
		</g>
		<g>
			<path fill="#271F3E" d="M334.351,214.832c-0.791,0-1.434-0.644-1.434-1.434v-13.383c0-0.791,0.643-1.435,1.434-1.435h77.748
				c0.79,0,1.435,0.644,1.435,1.435v13.383c0,0.79-0.645,1.434-1.435,1.434H334.351z"/>
		</g>
		<g>
			<path fill="#FFFFFF" d="M412.099,199.06c0.526,0,0.956,0.429,0.956,0.956v13.383c0,0.527-0.43,0.955-0.956,0.955h-77.748
				c-0.527,0-0.956-0.428-0.956-0.955v-13.383c0-0.527,0.428-0.956,0.956-0.956H412.099 M412.099,198.104h-77.748
				c-1.056,0-1.912,0.856-1.912,1.912v13.383c0,1.056,0.856,1.911,1.912,1.911h77.748c1.055,0,1.912-0.855,1.912-1.911v-13.383
				C414.011,198.96,413.153,198.104,412.099,198.104L412.099,198.104z"/>
		</g>
		<g>
			<rect x="230.157" y="123.541" fill="#CDD0E0" width="19.118" height="91.768"/>
		</g>
		<g>
			<rect x="515.018" y="123.541" fill="#CDD0E0" width="19.118" height="91.768"/>
		</g>
		<path opacity="0.2" fill="#CDD0E0" d="M430.03,291.782c0,3.695-2.995,6.69-6.691,6.69h-80.296c-3.696,0-6.691-2.995-6.691-6.69
			v-53.531c0-3.696,2.996-6.691,6.691-6.691h80.296c3.696,0,6.691,2.995,6.691,6.691V291.782z"/>
		<path fill="#CDD0E0" d="M423.339,298.951h-80.296c-3.953,0-7.169-3.216-7.169-7.169v-53.531c0-3.954,3.216-7.169,7.169-7.169
			h80.296c3.954,0,7.169,3.215,7.169,7.169v53.531C430.508,295.735,427.293,298.951,423.339,298.951z M343.042,232.037
			c-3.426,0-6.213,2.788-6.213,6.214v53.531c0,3.426,2.788,6.213,6.213,6.213h80.296c3.426,0,6.213-2.787,6.213-6.213v-53.531
			c0-3.426-2.787-6.214-6.213-6.214H343.042z"/>
		<g>
			<path fill="#271F3E" d="M541.12,86.733c-2.922,6.269-15.513,5.709-15.513,5.709H239.285c0,0-10.453,1.927-17.441-5.709
				l-31.831-76.358c0-3.153,3.49-5.709,7.795-5.709h366.383c4.305,0,7.795,2.556,7.795,5.709L541.12,86.733z"/>
			<path fill="#CDD0E0" d="M236.283,94.159c-3.614,0-10.438-0.833-15.545-6.413l-0.177-0.193l-0.101-0.242l-31.947-76.636v-0.3
				c0-3.975,4.169-7.209,9.295-7.209h366.383c5.125,0,9.295,3.234,9.295,7.209v0.292l-30.976,76.629
				c-2.803,6.018-12.201,6.659-16.114,6.659c-0.543,0-0.855-0.015-0.855-0.015l-286.133,0.002
				C239.014,94.004,237.869,94.159,236.283,94.159z M223.125,85.908c4.313,4.563,10.079,5.251,13.157,5.251
				c1.646,0,2.723-0.19,2.733-0.192l0.269-0.024h286.322c0.083,0.002,0.346,0.013,0.789,0.013c5.367,0,11.695-1.275,13.364-4.855
				l30.713-75.985c-0.209-2.166-3.001-3.948-6.282-3.948H197.808c-3.278,0-6.067,1.778-6.282,3.94L223.125,85.908z"/>
		</g>
		<g>
			<path fill="#FFFFFF" d="M570.895,5.776c-1.181-0.396-2.472-0.609-3.793-0.609H195.565c-1.33,0-2.609,0.205-3.776,0.593
				c0.947-2.188,2.29-4.26,3.776-4.26h371.537C568.588,1.5,569.938,3.579,570.895,5.776z"/>
			<path fill="#CDD0E0" d="M567.102,3c0.215,0,0.525,0.251,0.879,0.694c-0.29-0.019-0.584-0.027-0.879-0.027H195.565
				c-0.294,0-0.587,0.009-0.877,0.027C195.041,3.251,195.35,3,195.565,3H567.102 M567.102,0H195.565c-4.366,0-6.47,9.103-6.47,9.103
				c1.43-1.472,3.792-2.436,6.47-2.436h371.537c2.696,0,5.074,0.977,6.501,2.465C573.603,9.132,571.466,0,567.102,0L567.102,0z"/>
		</g>
		<linearGradient id="SVGID_3_" gradientUnits="userSpaceOnUse" x1="328.4731" y1="131.1411" x2="417.7479" y2="-51.8993">
			<stop  offset="0" style="stop-color:#7379BA"/>
			<stop  offset="1" style="stop-color:#69CEF4"/>
		</linearGradient>
		<polygon fill="url(#SVGID_3_)" points="207.411,15.347 233.454,84.797 528.616,84.797 555.623,15.347 		"/>
		<g>
			<path fill="#CDD0E0" d="M259.79,103.314c0,1.255,0.856,2.271,1.912,2.271h238.341c1.055,0,1.911-1.016,1.911-2.271v-6.054H259.79
				V103.314z"/>
		</g>
		<g>
			<path fill="#271F3E" d="M259.79,96.314c0,1.255,0.856,2.271,1.912,2.271h238.341c1.055,0,1.911-1.016,1.911-2.271v-6.054H259.79
				V96.314z"/>
		</g>
	</g>
	<g>
		<g>
			<linearGradient id="SVGID_4_" gradientUnits="userSpaceOnUse" x1="581.875" y1="316.3252" x2="727.1885" y2="171.0117">
				<stop  offset="0" style="stop-color:#F16B90"/>
				<stop  offset="1" style="stop-color:#F89E71"/>
			</linearGradient>
			<path fill="url(#SVGID_4_)" d="M737.531,302.668c0,4.418-3.582,8-8,8h-150c-4.418,0-8-3.582-8-8v-118c0-4.418,3.582-8,8-8h150
				c4.418,0,8,3.582,8,8V302.668z"/>
			<path fill="#CDD0E0" d="M729.531,312.168h-150c-5.238,0-9.5-4.262-9.5-9.5v-118c0-5.238,4.262-9.5,9.5-9.5h150
				c5.238,0,9.5,4.262,9.5,9.5v118C739.031,307.906,734.77,312.168,729.531,312.168z M579.531,178.168c-3.584,0-6.5,2.916-6.5,6.5
				v118c0,3.584,2.916,6.5,6.5,6.5h150c3.584,0,6.5-2.916,6.5-6.5v-118c0-3.584-2.916-6.5-6.5-6.5H579.531z"/>
		</g>
		<g>
			
				<linearGradient id="SVGID_5_" gradientUnits="userSpaceOnUse" x1="1159.4268" y1="450.5527" x2="1159.4268" y2="363.5557" gradientTransform="matrix(0.8765 -0.4814 0.4814 0.8765 -532.9098 447.7117)">
				<stop  offset="0" style="stop-color:#F1F2F2"/>
				<stop  offset="0.2605" style="stop-color:#F5F5F6"/>
				<stop  offset="1" style="stop-color:#FFFFFF"/>
			</linearGradient>
			<path fill="url(#SVGID_5_)" d="M710.973,255.752c5.317,9.682,1.78,21.84-7.902,27.157l-5.694,3.128
				c-9.683,5.317-21.841,1.779-27.158-7.902l-22.623-41.192c-5.317-9.681-1.78-21.841,7.902-27.158l5.694-3.128
				c9.683-5.317,21.842-1.778,27.158,7.902L710.973,255.752z"/>
			<g>
				<path fill="#CDD0E0" d="M702.946,283.549l-5.695,3.127c-10.392,5.707-23.487,1.896-29.194-8.495l-22.623-41.192
					c-5.708-10.392-1.896-23.487,8.494-29.194l5.695-3.128c10.392-5.707,23.487-1.896,29.194,8.495l22.624,41.192
					C717.148,264.745,713.337,277.841,702.946,283.549z M655.372,210.423c-8.941,4.911-12.22,16.18-7.31,25.121l22.623,41.192
					c4.911,8.941,16.18,12.221,25.121,7.311l5.695-3.128c8.941-4.911,12.221-16.18,7.31-25.121l-22.623-41.192
					c-4.911-8.941-16.18-12.221-25.121-7.31L655.372,210.423z"/>
			</g>
			<g>
				<path fill="#CDD0E0" d="M691.67,269.764c-2.82,1.549-6.372,0.515-7.921-2.305c-1.548-2.818-0.515-6.371,2.305-7.92
					c2.819-1.548,6.372-0.515,7.92,2.305S694.488,268.216,691.67,269.764z M687.498,262.168c-1.369,0.753-1.871,2.479-1.119,3.847
					c0.752,1.37,2.477,1.872,3.847,1.119c1.368-0.751,1.87-2.477,1.118-3.847C690.592,261.919,688.867,261.417,687.498,262.168z"/>
			</g>
		</g>
	</g>
	<g>
		<g>
			<radialGradient id="SVGID_6_" cx="617.3945" cy="100.668" r="48.7917" gradientUnits="userSpaceOnUse">
				<stop  offset="0" style="stop-color:#5EB6E6"/>
				<stop  offset="1" style="stop-color:#5E4B8B"/>
			</radialGradient>
			<polygon fill="url(#SVGID_6_)" points="617.395,75.668 632.846,53.115 632.09,80.442 657.846,71.279 641.171,92.942 
				667.395,100.668 641.171,108.394 657.846,130.057 632.09,120.894 632.846,148.221 617.395,125.668 601.943,148.221 
				602.699,120.894 576.943,130.057 593.618,108.394 567.395,100.668 593.618,92.942 576.943,71.279 602.699,80.442 601.943,53.115 
							"/>
			<path fill="#CDD0E0" d="M633.939,151.586l-16.545-24.148l-16.545,24.148l0.81-29.261l-27.579,9.812l17.855-23.196l-28.08-8.272
				l28.08-8.272L574.08,69.199l27.579,9.812l-0.81-29.261l16.545,24.148l16.545-24.148l-0.81,29.261l27.579-9.812l-17.855,23.196
				l28.08,8.272l-28.08,8.272l17.855,23.196l-27.579-9.812L633.939,151.586z M617.395,123.898l14.357,20.957l-0.702-25.394
				l23.933,8.515l-15.494-20.13l24.367-7.179l-24.367-7.179l15.494-20.13l-23.933,8.515l0.702-25.394l-14.357,20.957L603.037,56.48
				l0.702,25.394l-23.933-8.515l15.494,20.13l-24.367,7.179l24.367,7.179l-15.494,20.13l23.933-8.515l-0.702,25.394L617.395,123.898
				z"/>
		</g>
		<g>
			
				<radialGradient id="SVGID_7_" cx="629.1396" cy="100.4346" r="48.9797" gradientTransform="matrix(0.9999 -0.0111 0.0111 0.9999 -12.7974 7.2265)" gradientUnits="userSpaceOnUse">
				<stop  offset="0" style="stop-color:#7379BA"/>
				<stop  offset="1" style="stop-color:#69CEF4"/>
			</radialGradient>
			<polygon fill="url(#SVGID_7_)" points="625.499,77.018 647.427,60.692 637.853,86.299 665.188,85.979 642.392,101.067 
				664.694,116.877 637.383,115.685 646.134,141.583 624.739,124.565 616.596,150.661 609.29,124.318 587.362,140.644 
				596.936,115.037 569.601,115.356 592.397,100.269 570.095,84.459 597.406,85.651 588.655,59.753 610.05,76.771 618.193,50.675 
							"/>
			<path fill="#CDD0E0" d="M616.539,154.199l-7.822-28.207l-23.479,17.48l10.25-27.419l-29.27,0.343l24.41-16.156l-23.881-16.929
				l29.244,1.277l-9.37-27.731l22.909,18.222l8.72-27.942l7.822,28.207l23.479-17.48l-10.251,27.419l29.27-0.343l-24.409,16.156
				l23.881,16.929l-29.244-1.277l9.37,27.731l-22.909-18.222L616.539,154.199z M609.863,122.645l6.789,24.479l7.567-24.249
				l19.88,15.813l-8.132-24.065l25.379,1.107l-20.725-14.69l21.183-14.02l-25.4,0.296l8.897-23.794l-20.376,15.17l-6.789-24.479
				l-7.567,24.249l-19.88-15.813l8.132,24.065l-25.379-1.107l20.725,14.69l-21.184,14.02l25.4-0.296l-8.896,23.794L609.863,122.645z
				"/>
		</g>
		<g>
			
				<radialGradient id="SVGID_8_" cx="1029.1367" cy="193.2207" r="22.9911" gradientTransform="matrix(0.9146 -0.4044 0.4044 0.9146 -401.9919 340.9119)" gradientUnits="userSpaceOnUse">
				<stop  offset="0" style="stop-color:#F16B90"/>
				<stop  offset="1" style="stop-color:#F89E71"/>
			</radialGradient>
			<polygon fill="url(#SVGID_8_)" points="621.214,90.445 631.459,82.881 626.952,94.791 639.687,94.694 629.039,101.68 
				639.399,109.087 626.678,108.48 630.706,120.562 620.772,112.594 616.93,124.736 613.575,112.451 603.33,120.015 
				607.836,108.104 595.103,108.202 605.75,101.216 595.39,93.81 608.11,94.416 604.083,82.335 614.017,90.302 617.859,78.159 			
				"/>
			<path fill="#CDD0E0" d="M616.859,128.273l-3.864-14.151l-11.801,8.713l5.189-13.72l-14.668,0.113l12.266-8.048l-11.935-8.531
				l14.653,0.698l-4.64-13.916l11.443,9.177l4.426-13.987l3.864,14.152l11.802-8.713l-5.191,13.72l14.669-0.111l-12.266,8.046
				l11.935,8.532l-14.654-0.698l4.641,13.917l-11.443-9.179L616.859,128.273z M614.155,110.78L617,121.199l3.26-10.299l8.424,6.757
				l-3.416-10.245l10.789,0.515l-8.786-6.282l9.029-5.925l-10.8,0.082l3.822-10.101l-8.688,6.416l-2.845-10.42l-3.26,10.298
				l-8.424-6.757l3.415,10.246l-10.788-0.515l8.786,6.281l-9.029,5.925l10.799-0.082l-3.822,10.101L614.155,110.78z"/>
		</g>
	</g>
	<g>
		<g>
			<polygon fill="#271F3E" points="678.212,162.833 678.434,135.364 692.616,136.699 692.417,161.422 			"/>
			
				<rect x="690.318" y="136.994" transform="matrix(-1 -0.0081 0.0081 -1 1381.694 304.3093)" fill="#CDD0E0" width="2.29" height="24.723"/>
			<g>
				<path fill="#CDD0E0" d="M677.453,134.601l15.734,1.483l-0.21,26.133l-15.761,1.564L677.453,134.601z M691.626,137.494
					l-12.635-1.188l-0.209,25.76l12.653-1.256L691.626,137.494z"/>
			</g>
			<g>
				
					<rect x="692.565" y="143.856" transform="matrix(-0.9733 -0.2295 0.2295 -0.9733 1353.8333 446.7288)" fill="#CDD0E0" width="20.662" height="1.553"/>
			</g>
			<g>
				
					<rect x="692.493" y="153.014" transform="matrix(-0.9769 0.2137 -0.2137 -0.9769 1422.2749 153.8011)" fill="#CDD0E0" width="20.66" height="1.553"/>
			</g>
			<g>
				<path fill="#CDD0E0" d="M712.911,146.81c0.59-1.613,1.751-2.685,2.979-2.674c0.842,0.007,1.648,0.501,2.269,1.39
					c0.679,0.973,1.047,2.271,1.034,3.662c-0.003,0.553-0.069,1.099-0.192,1.615c-0.481,2.003-1.792,3.391-3.191,3.381
					c-0.843-0.007-1.65-0.502-2.272-1.392c-0.341-0.487-0.604-1.063-0.778-1.688c-0.508,0.104-1.053,0.213-1.521,0.303
					c0.224,0.838,0.567,1.612,1.029,2.275c0.917,1.313,2.171,2.043,3.53,2.054c2.16,0.019,4.055-1.82,4.713-4.571
					c0.151-0.633,0.231-1.294,0.237-1.964c0.014-1.71-0.452-3.331-1.315-4.561c-0.915-1.315-2.169-2.044-3.528-2.057
					c-2.161-0.017-4.057,1.82-4.713,4.57l0,0C711.763,147.039,712.339,146.921,712.911,146.81z"/>
			</g>
		</g>
		<g>
			<polygon fill="#271F3E" points="645.354,180.766 658.473,156.631 670.36,164.483 658.553,186.203 			"/>
			
				<rect x="662.245" y="162.747" transform="matrix(-0.8786 -0.4775 0.4775 -0.8786 1162.6471 645.7371)" fill="#CDD0E0" width="2.289" height="24.725"/>
			<g>
				<path fill="#CDD0E0" d="M657.968,155.496l13.188,8.711l-12.483,22.961l-14.645-6.033L657.968,155.496z M669.111,164.719
					l-10.587-6.994l-12.306,22.634l11.755,4.845L669.111,164.719z"/>
			</g>
			<g>
				
					<rect x="665.371" y="175.546" transform="matrix(-0.7509 -0.6605 0.6605 -0.7509 1066.5957 754.9941)" fill="#CDD0E0" width="20.659" height="1.553"/>
			</g>
			<g>
				
					<rect x="660.995" y="183.591" transform="matrix(-0.9626 -0.271 0.271 -0.9626 1267.5742 543.751)" fill="#CDD0E0" width="20.661" height="1.552"/>
			</g>
			<g>
				<path fill="#CDD0E0" d="M683.513,182.954c1.278-1.148,2.808-1.546,3.887-0.959c0.74,0.401,1.22,1.219,1.349,2.295
					c0.142,1.177-0.146,2.496-0.811,3.717c-0.264,0.486-0.578,0.937-0.931,1.335c-1.364,1.542-3.176,2.149-4.407,1.481
					c-0.739-0.403-1.221-1.219-1.348-2.296c-0.072-0.592-0.034-1.221,0.105-1.856c-0.497-0.147-1.032-0.309-1.485-0.448
					c-0.197,0.844-0.258,1.689-0.163,2.492c0.191,1.589,0.956,2.822,2.148,3.473c1.899,1.03,4.435,0.301,6.311-1.816
					c0.433-0.487,0.813-1.035,1.134-1.623c0.817-1.502,1.167-3.15,0.986-4.643c-0.189-1.591-0.954-2.825-2.146-3.475
					c-1.9-1.031-4.436-0.302-6.31,1.816l0,0C682.392,182.613,682.953,182.782,683.513,182.954z"/>
			</g>
		</g>
	</g>
	<g>
		<linearGradient id="SVGID_9_" gradientUnits="userSpaceOnUse" x1="32.25" y1="213.6846" x2="179.9682" y2="65.9664">
			<stop  offset="0" style="stop-color:#F16B90"/>
			<stop  offset="1" style="stop-color:#F89E71"/>
		</linearGradient>
		<path fill="url(#SVGID_9_)" d="M169.105,222.477c0,2.762-2.239,5-5,5H48.112c-2.761,0-5-2.238-5-5V57.175c0-2.761,2.239-5,5-5
			h115.993c2.761,0,5,2.239,5,5V222.477z"/>
		<g>
			<path fill="#CDD0E0" d="M164.105,228.977H48.112c-3.584,0-6.5-2.916-6.5-6.5V57.175c0-3.584,2.916-6.5,6.5-6.5h115.993
				c3.584,0,6.5,2.916,6.5,6.5v165.302C170.605,226.061,167.689,228.977,164.105,228.977z M48.112,53.675c-1.93,0-3.5,1.57-3.5,3.5
				v165.302c0,1.93,1.57,3.5,3.5,3.5h115.993c1.93,0,3.5-1.57,3.5-3.5V57.175c0-1.93-1.57-3.5-3.5-3.5H48.112z"/>
		</g>
		<path fill="#CDD0E0" d="M55.112,83.924c0,1.242-1.007,2.25-2.249,2.25H31.864c-1.243,0-2.25-1.008-2.25-2.25l0,0
			c0-1.242,1.007-2.25,2.25-2.25h20.999C54.105,81.674,55.112,82.682,55.112,83.924L55.112,83.924z"/>
		<path fill="#CDD0E0" d="M55.112,93.924c0,1.242-1.007,2.25-2.249,2.25H31.864c-1.243,0-2.25-1.008-2.25-2.25l0,0
			c0-1.242,1.007-2.25,2.25-2.25h20.999C54.105,91.674,55.112,92.682,55.112,93.924L55.112,93.924z"/>
		<path fill="#CDD0E0" d="M55.112,103.924c0,1.242-1.007,2.25-2.249,2.25H31.864c-1.243,0-2.25-1.008-2.25-2.25l0,0
			c0-1.242,1.007-2.25,2.25-2.25h20.999C54.105,101.674,55.112,102.682,55.112,103.924L55.112,103.924z"/>
		<path fill="#CDD0E0" d="M55.112,113.924c0,1.242-1.007,2.25-2.249,2.25H31.864c-1.243,0-2.25-1.008-2.25-2.25l0,0
			c0-1.242,1.007-2.25,2.25-2.25h20.999C54.105,111.674,55.112,112.682,55.112,113.924L55.112,113.924z"/>
		<path fill="#CDD0E0" d="M55.112,123.924c0,1.242-1.007,2.25-2.249,2.25H31.864c-1.243,0-2.25-1.008-2.25-2.25l0,0
			c0-1.242,1.007-2.25,2.25-2.25h20.999C54.105,121.674,55.112,122.682,55.112,123.924L55.112,123.924z"/>
		<path fill="#CDD0E0" d="M55.112,133.924c0,1.242-1.007,2.25-2.249,2.25H31.864c-1.243,0-2.25-1.008-2.25-2.25l0,0
			c0-1.242,1.007-2.25,2.25-2.25h20.999C54.105,131.674,55.112,132.682,55.112,133.924L55.112,133.924z"/>
		<path fill="#CDD0E0" d="M55.112,143.924c0,1.242-1.007,2.25-2.249,2.25H31.864c-1.243,0-2.25-1.008-2.25-2.25l0,0
			c0-1.242,1.007-2.25,2.25-2.25h20.999C54.105,141.674,55.112,142.682,55.112,143.924L55.112,143.924z"/>
		<path fill="#CDD0E0" d="M55.112,153.924c0,1.242-1.007,2.25-2.249,2.25H31.864c-1.243,0-2.25-1.008-2.25-2.25l0,0
			c0-1.242,1.007-2.25,2.25-2.25h20.999C54.105,151.674,55.112,152.682,55.112,153.924L55.112,153.924z"/>
		<path fill="#CDD0E0" d="M55.112,163.924c0,1.242-1.007,2.25-2.249,2.25H31.864c-1.243,0-2.25-1.008-2.25-2.25l0,0
			c0-1.242,1.007-2.25,2.25-2.25h20.999C54.105,161.674,55.112,162.682,55.112,163.924L55.112,163.924z"/>
		<path fill="#CDD0E0" d="M55.112,173.924c0,1.242-1.007,2.25-2.249,2.25H31.864c-1.243,0-2.25-1.008-2.25-2.25l0,0
			c0-1.242,1.007-2.25,2.25-2.25h20.999C54.105,171.674,55.112,172.682,55.112,173.924L55.112,173.924z"/>
		<path fill="#CDD0E0" d="M55.112,183.924c0,1.242-1.007,2.25-2.249,2.25H31.864c-1.243,0-2.25-1.008-2.25-2.25l0,0
			c0-1.242,1.007-2.25,2.25-2.25h20.999C54.105,181.674,55.112,182.682,55.112,183.924L55.112,183.924z"/>
		<path fill="#CDD0E0" d="M55.112,193.924c0,1.242-1.007,2.25-2.249,2.25H31.864c-1.243,0-2.25-1.008-2.25-2.25l0,0
			c0-1.242,1.007-2.25,2.25-2.25h20.999C54.105,191.674,55.112,192.682,55.112,193.924L55.112,193.924z"/>
		<g>
			<path fill="#FFFFFF" d="M140.865,117.59c0,2.762-2.239,5-5,5H75.199c-2.761,0-5-2.238-5-5V92.924c0-2.762,2.239-5,5-5h60.667
				c2.761,0,5,2.238,5,5V117.59z"/>
			<path fill="#CDD0E0" d="M135.865,124.09H75.199c-3.584,0-6.5-2.916-6.5-6.5V92.924c0-3.584,2.916-6.5,6.5-6.5h60.667
				c3.584,0,6.5,2.916,6.5,6.5v24.666C142.365,121.174,139.449,124.09,135.865,124.09z M75.199,89.424c-1.93,0-3.5,1.57-3.5,3.5
				v24.666c0,1.93,1.57,3.5,3.5,3.5h60.667c1.93,0,3.5-1.57,3.5-3.5V92.924c0-1.93-1.57-3.5-3.5-3.5H75.199z"/>
		</g>
	</g>
	<g>
		
			<linearGradient id="SVGID_10_" gradientUnits="userSpaceOnUse" x1="423.9248" y1="778.2432" x2="567.7999" y2="634.3681" gradientTransform="matrix(0.8328 -0.5536 0.5536 0.8328 -706.6445 -52.6917)">
			<stop  offset="0" style="stop-color:#BC79B3"/>
			<stop  offset="1" style="stop-color:#7379BA"/>
		</linearGradient>
		<path fill="url(#SVGID_10_)" d="M86.446,162.053L4.435,216.57c-0.816,0.543-1.571,1.141-2.296,1.759l97.695,146.966
			c0.851-0.43,1.693-0.896,2.509-1.438l82.012-54.517c10.179-6.767,13.392-19.832,7.177-29.182l-75.399-113.426
			C109.917,157.382,96.625,155.287,86.446,162.053z"/>
		
			<rect x="42.377" y="232.116" transform="matrix(0.8328 -0.5536 0.5536 0.8328 -126.0746 100.1976)" opacity="0.2" fill="#5E4B8B" width="120.897" height="53.364"/>
		
			<rect x="110.91" y="158.627" transform="matrix(0.8328 -0.5536 0.5536 0.8328 -116.698 107.7808)" fill="#271F3E" width="18.296" height="176.86"/>
		<g>
			<path fill="#CDD0E0" d="M178.117,315.238l-17.776,11.816L60.745,177.229l17.776-11.817L178.117,315.238z M161.192,322.827
				l12.697-8.44L77.669,169.64l-12.698,8.44L161.192,322.827z"/>
		</g>
		<g>
			<path fill="#CDD0E0" d="M185.08,310.609l-82.012,54.518c-0.785,0.521-1.632,1.007-2.668,1.529l-1.207,0.607L0,218.045l1.03-0.877
				c0.888-0.756,1.663-1.35,2.441-1.867l82.012-54.517c10.864-7.222,25.128-4.931,31.799,5.104l75.4,113.426
				C199.353,289.349,195.943,303.388,185.08,310.609z M100.219,363.299c0.417-0.236,0.799-0.471,1.161-0.711l82.012-54.518
				c9.463-6.291,12.491-18.434,6.751-27.068l-75.399-113.426c-5.74-8.635-18.109-10.544-27.572-4.253L5.16,217.84
				c-0.361,0.24-0.724,0.502-1.105,0.796L100.219,363.299z"/>
		</g>
	</g>
</g>
</svg>
