<svg height="303" viewBox="0 0 221 303" width="221" xmlns="http://www.w3.org/2000/svg" xmlns:xlink="http://www.w3.org/1999/xlink"><linearGradient id="a"><stop offset="0" stop-color="#fbd863"/><stop offset="1" stop-color="#ff5acd"/></linearGradient><linearGradient id="b" x1="22.200521%" x2="63.850204%" xlink:href="#a" y1="120.230412%" y2="11.008265%"/><linearGradient id="c" x1="100%" x2="30.962171%" xlink:href="#a" y1="133.391584%" y2="20.651727%"/><filter id="d" height="168.1%" width="168.1%" x="-34%" y="-24.3%"><feMorphology in="SourceAlpha" operator="dilate" radius="1" result="shadowSpreadOuter1"/><feOffset dx="0" dy="2" in="shadowSpreadOuter1" result="shadowOffsetOuter1"/><feGaussianBlur in="shadowOffsetOuter1" result="shadowBlurOuter1" stdDeviation="1.5"/><feComposite in="shadowBlurOuter1" in2="SourceAlpha" operator="out" result="shadowBlurOuter1"/><feColorMatrix in="shadowBlurOuter1" result="shadowMatrixOuter1" type="matrix" values="0 0 0 0 0.329411765   0 0 0 0 0.368627451   0 0 0 0 0.435294118  0 0 0 0.0362035779 0"/><feMorphology in="SourceAlpha" operator="dilate" radius="1" result="shadowSpreadOuter2"/><feOffset dx="0" dy="5" in="shadowSpreadOuter2" result="shadowOffsetOuter2"/><feGaussianBlur in="shadowOffsetOuter2" result="shadowBlurOuter2" stdDeviation="6"/><feComposite in="shadowBlurOuter2" in2="SourceAlpha" operator="out" result="shadowBlurOuter2"/><feColorMatrix in="shadowBlurOuter2" result="shadowMatrixOuter2" type="matrix" values="0 0 0 0 0.329411765   0 0 0 0 0.368627451   0 0 0 0 0.435294118  0 0 0 0.08 0"/><feMerge><feMergeNode in="shadowMatrixOuter1"/><feMergeNode in="shadowMatrixOuter2"/></feMerge></filter><filter id="e" height="167.7%" width="167.7%" x="-33.9%" y="-24.2%"><feMorphology in="SourceAlpha" operator="dilate" radius="1" result="shadowSpreadOuter1"/><feOffset dx="0" dy="2" in="shadowSpreadOuter1" result="shadowOffsetOuter1"/><feGaussianBlur in="shadowOffsetOuter1" result="shadowBlurOuter1" stdDeviation="1.5"/><feComposite in="shadowBlurOuter1" in2="SourceAlpha" operator="out" result="shadowBlurOuter1"/><feColorMatrix in="shadowBlurOuter1" result="shadowMatrixOuter1" type="matrix" values="0 0 0 0 0.329411765   0 0 0 0 0.368627451   0 0 0 0 0.435294118  0 0 0 0.0362035779 0"/><feMorphology in="SourceAlpha" operator="dilate" radius="1" result="shadowSpreadOuter2"/><feOffset dx="0" dy="4" in="shadowSpreadOuter2" result="shadowOffsetOuter2"/><feGaussianBlur in="shadowOffsetOuter2" result="shadowBlurOuter2" stdDeviation="5"/><feComposite in="shadowBlurOuter2" in2="SourceAlpha" operator="out" result="shadowBlurOuter2"/><feColorMatrix in="shadowBlurOuter2" result="shadowMatrixOuter2" type="matrix" values="0 0 0 0 0.329411765   0 0 0 0 0.368627451   0 0 0 0 0.435294118  0 0 0 0.08 0"/><feMerge><feMergeNode in="shadowMatrixOuter1"/><feMergeNode in="shadowMatrixOuter2"/></feMerge></filter><filter id="f" height="168.3%" width="168.3%" x="-34.1%" y="-24.4%"><feMorphology in="SourceAlpha" operator="dilate" radius="1" result="shadowSpreadOuter1"/><feOffset dx="0" dy="2" in="shadowSpreadOuter1" result="shadowOffsetOuter1"/><feGaussianBlur in="shadowOffsetOuter1" result="shadowBlurOuter1" stdDeviation="1.5"/><feComposite in="shadowBlurOuter1" in2="SourceAlpha" operator="out" result="shadowBlurOuter1"/><feColorMatrix in="shadowBlurOuter1" result="shadowMatrixOuter1" type="matrix" values="0 0 0 0 0.329411765   0 0 0 0 0.368627451   0 0 0 0 0.435294118  0 0 0 0.0362035779 0"/><feMorphology in="SourceAlpha" operator="dilate" radius="1" result="shadowSpreadOuter2"/><feOffset dx="0" dy="6" in="shadowSpreadOuter2" result="shadowOffsetOuter2"/><feGaussianBlur in="shadowOffsetOuter2" result="shadowBlurOuter2" stdDeviation="7"/><feComposite in="shadowBlurOuter2" in2="SourceAlpha" operator="out" result="shadowBlurOuter2"/><feColorMatrix in="shadowBlurOuter2" result="shadowMatrixOuter2" type="matrix" values="0 0 0 0 0.329411765   0 0 0 0 0.368627451   0 0 0 0 0.435294118  0 0 0 0.08 0"/><feMerge><feMergeNode in="shadowMatrixOuter1"/><feMergeNode in="shadowMatrixOuter2"/></feMerge></filter><g fill="none" transform="translate(15)"><circle cx="137" cy="292" fill="url(#b)" r="69"/><circle cx="103" cy="7" fill="url(#c)" r="7"/><g transform="translate(99 101)"><rect fill="#000" filter="url(#d)" height="72" rx="35.999997" width="72"/><rect fill="#fff" fill-rule="evenodd" height="73" rx="35.999997" stroke="#545e6f" stroke-opacity=".04" width="73" x="-.5" y="-.5"/></g><g transform="translate(120 122)"><path d="m14.9758713 0-14.9758713 5.312 2.28418231 19.696 12.69168899 6.992 12.691689-6.992 2.2841823-19.696" fill="#4a4a4a"/><path d="m14.9597855 0v3.552-.016 28.464l12.691689-6.992 2.2841823-19.696" fill="#545454"/><path d="m11.9929223 6.72936c-.0413958.00800605-.081832.02031353-.1206435.03672-.0309651.01408-.088874.03096-.1286863.03744-.0398123.00656-.0896783.02536-.1107507.04184s-.0580697.02992-.0820375.02992c-.0241287 0-.0627346.01744-.0858177.03872-.0231635.02136-.0570241.04352-.0752815.04928s-.0506702.02792-.0721448.04928c-.0214745.02128-.0465683.03872-.0558177.03872-.0092493 0-.0168096.01096-.0168096.0244s-.0171314.03088-.0380429.0388c-.0209115.00784-.0418231.02928-.0466488.0476-.0048258.01824-.0203485.0332-.0344236.0332-.0141555 0-.0256568.0072-.0256568.01616 0 .0088-.0217159.03872-.0482574.06632-.0265416.02768-.0482574.05592-.0482574.0628s-.0144772.01712-.0321716.02272c-.0176943.0056-.0321716.01736-.0321716.02624 0 .0196-.1048793.132-.2975871.31936-.0796246.07744-.1631099.15912-.18563.18152-.0224397.0224-.0460054.0408-.0522788.0408-.0064343 0-.0437534.03248-.0830027.072-.0392493.03968-.0778552.072-.0858177.072-.0080429 0-.0270241.01384-.0423056.03064s-.049866.0396-.0769705.0508c-.0271046.01112-.0657909.0352-.086059.05344-.07077751.06368-.12820378.10032-.17533515.11184-.02621984.0064-.05702412.02496-.06836461.0412-.01158177.01632-.04439678.03472-.07294906.04096-.02863271.00632-.05975871.02192-.0691689.0348-.00957105.0128-.05179625.02976-.09394102.0376s-.09474531.0284-.11686327.0456c-.02211796.01744-.07399464.0364-.11549598.04232-.04142091.00592-.08734584.02128-.10214477.03416-.0172118.01496-.09201072.02896-.20911528.03904-.10021448.00856-.2058177.02632-.23461126.03944-.02871314.01312-.14034853.0312-.24796247.0404-.11742627.01-.20991957.02592-.23123324.03984-.01962467.01272-.08123325.0304-.1372118.03944-.06739946.0108-.10857909.02632-.12257372.04616-.01158177.0164-.04198392.0344-.06756033.04-.02565683.0056-.05935656.02424-.07479892.04128-.01568365.01712-.03812333.03112-.05002681.03112-.02453083 0-.21466488.18368-.21466488.20736 0 .00848-.01351207.02824-.03.044-.01656837.01576-.03884719.0556-.04946381.08848-.01069705.03296-.02935657.06544-.04142091.07216-.01351207.00752-.02863271.06528-.0391689.14976-.00949062.0756-.02734585.17272-.03997319.21584-.01761394.06056-.02396783.2296-.02798928.7424-.00506702.64264-.00635389.66584-.03924933.72128-.0212789.0370098-.03920481.0758296-.05356568.116-.01069705.03232-.02630027.05872-.03458445.05872-.00852547 0-.02163539.01632-.02919571.03632-.02485255.06496-.3747185.43064-.52407507.54768-.03369973.0264-.08364611.06744-.11115282.0912-.02734584.02368-.06989276.05968-.09434316.08-.03756032.03104-.25238606.242-.36514745.3584-.01801609.01864-.03273459.04072-.03273459.0492s-.02171581.0396-.04825737.0692c-.02654155.0296-.04825737.06576-.04825737.0804s-.0141555.03936-.03136729.05488c-.01729223.0156-.03941019.06656-.04906167.11328-.00989276.04672-.02831099.0936-.04101876.10416-.03369973.02776-.03257373.34144.00160858.4224.01367292.03264.03241286.14296.04182305.2452.00973191.10608.0269437.20096.03997319.22072.01262735.01912.02959786.09328.03780161.16472.01053619.09176.02412869.13992.04624665.16352.01729223.0184.03627346.05984.0422252.092.00603217.03232.02396783.07312.04005362.09072s.03410188.05544.04021448.08416c.00603217.02864.02461126.05936.04126005.06816.01769437.00944.03394102.04072.03941019.07584.00506702.03296.02115281.09576.03579088.1396.03780161.11328.03820376.50448.00056301.58424-.01447722.0308-.03112601.08984-.03699732.1312-.00587132.04136-.02798928.09856-.04906166.12712-.02131368.02856-.0386059.06232-.0386059.07512 0 .0324-.10656837.1888-.13632708.20024-.01351206.00512-.02453083.02368-.02453083.04128 0 .01752-.01447721.0396-.03217158.04904s-.03217159.02744-.03217159.04-.02067024.04656-.0458445.07544c-.02541555.0288-.05091153.0788-.05686327.11096-.00587131.032-.0213941.0672-.03442359.07792-.03361931.02776-.03265416.256.00128686.32136.01375335.0264.03112601.10224.0386059.16848.00932976.0832.0233244.13104.04520107.15504.01745308.01912.03651475.0548.04230563.0792.00579089.0244.02493298.05864.04230563.076.01745308.01736.03176944.04448.03176944.06024 0 .01584.03257372.0644.07238606.108.0397319.04368.08284182.10096.0955496.12736.01286863.0264.03812332.05704.05638069.06816.01817695.01104.0330563.03008.0330563.04224 0 .01224.01093834.02632.02428955.03144.0133512.00512.03257372.02744.0427882.0496.01021448.02232.02847185.04056.04053619.04056.01214478 0 .02678285.01256.03241287.028.00571046.01544.02541555.04336.04375335.06208.0183378.0188.07319035.07904.12184987.13392s.12225201.136.16335121.1804c.04117962.04432.07914209.1016.08428954.12736.00522788.02576.0233244.0644.04029491.08584s.03579088.07488.04190348.11872c.00603217.04384.01664879.07968.02364611.07968.01689008 0 .04399464.074.05436998.14824.00466488.03312.02276139.07832.04021447.10048.01753352.02216.03667561.0688.04262735.10376s.01648794.06352.02348525.06352c.01640751 0 .0447185.07184.05790885.14688.00563003.0324.01986595.06264.03176944.0672.01190348.00448.03096515.03904.04230563.07672.01134048.0376.03345844.0812.04914209.0968s.02855228.04944.02855228.0752c0 .0256.01713137.06704.03804289.092.02091153.0248.0435925.0632.05042896.0852s.02597855.0572.04246649.07816c.0164075.02096.02991957.05104.02991957.0668 0 .01568.01769437.04944.0391689.07488.02155496.02544.04391421.06512.04970509.088.00579089.02304.02034853.0456.03233244.05016.01206435.00456.03088472.0392.04206435.07712.01126005.03792.03329758.07832.04914209.08976.01592493.01152.02895442.03136.02895442.04416s.01455764.03576.03257373.05104c.01793565.0152.03989276.0548.04882037.08784.00892762.03304.02300268.06.03136729.06.00820376 0 .04367293.04504.07882038.1.03514745.05512.07512064.1144.08879357.132.05726541.0736.1058445.1464.12193029.18288.00941019.02128.03313673.0544.05268097.07376.01954423.0192.0483378.05216.06394101.0732.08091153.1088.14203754.1856.17171582.21592.01825737.01856.03313673.04176.03313673.0516 0 .00992.01809652.02976.04021448.04416s.04021448.03336.04021448.042.01986595.03496.04423592.0584c.02428954.0236.08042895.0848.12466488.136.04423592.05136.11839142.134.16487936.18368.04648793.0496.0844504.09936.0844504.1104s.00941019.02.02091153.02c.02605898 0 .13994638.11456.13994638.14072 0 .01064.00908847.0196.02010724.01984.02573726.00056.11646112.0824.14002681.12616.00989276.01832.02605898.03336.03603217.03336.01664879 0 .06844504.04464.29871313.2576.0466488.04312.09168901.0784.10037534.0784s.02477212.0144.03579088.032c.0110992.0176.02903486.032.03997319.032.01101877 0 .03176944.018.04624665.04.01455764.022.03506703.04.04584451.04.01061662 0 .04423592.02176.07447721.0484.03032171.02664.07857907.068.10721177.092s.0857373.07424.1269169.11176c.0410992.03752.0908847.07712.1105094.088.0834853.04624.1689812.10944.1689812.1248 0 .0092.0211528.024.0469705.03296s.0509116.02664.0558177.0392c.0048258.01256.0185791.02288.030563.02288.0119035 0 .0460054.0216.0757641.048s.0624933.048.0727882.048.0318499.0144.0478552.032c.0160858.0176.0373191.032.0474531.032.0098928 0 .0431904.02128.0738338.04736.030563.026.0672386.0476.0813137.048.014075.00032.0387667.01504.0547721.03264.0160858.0176.0391689.032.0514745.032.0123057 0 .0398124.01736.061126.0384.0212333.02128.0637802.04688.0944236.05696.0307239.01.064504.02872.0751207.04144.010697.0128.0287935.0232.0402949.0232.0115013 0 .0424665.018.0688472.04.0263002.02216.0698123.04456.0965951.04984.0268633.00536.0623325.02232.0789008.0376.0166488.01544.0563003.03656.0882306.04704.0318499.0104.0616086.02848.0660322.04.004504.0116.0407775.0292.0806702.0392.0398928.01.0830027.02864.0959518.04144.0128686.0128.0442359.02824.069571.03416.0254156.006.0606434.02392.0783378.03984s.0635389.03592.1016622.04448c.0382842.00856.0817158.02632.0965148.0396.0148793.01328.0543699.02912.0877479.0352.0333781.00624.0695711.0236.080429.03864.0110992.01544.0613673.0356.1150134.04616.0523592.0104.1066488.02904.1206434.04144.0139142.01248.0534853.02784.0878284.03416.0344236.0064.075362.02432.0910456.03992.0165684.01648.0735121.0352.1364075.04504.0593566.0092.1198392.0272.1343164.04.0143163.0128.0606434.02848.1027078.03464.0421447.00624.0943431.0252.1160589.04216.0255764.02.081555.0356.1588472.04416.0657105.00736.1401877.0248.1655228.03872.0252547.01392.0957105.03248.1565148.0412.0607238.00872.1227345.02688.1376943.04032.0180161.01624.0845309.02944.1973727.0392.0936193.008.1946381.0256.2242359.03912.0297587.01336.1354424.03192.2350134.04112.1047185.0096.2023593.02776.2318767.04296.1282037.06592 1.9841823.06512 2.1156032-.00096.0303217-.0152.1319839-.0328.2493298-.04304.1089812-.0096.2174799-.0272.2412868-.0392.0236461-.012.1282038-.02928.2322788-.0384.1291689-.0112.1979357-.02432.2167561-.0412.0151206-.0136.0806702-.0316.1456568-.04.0649866-.00832.137614-.026.1614209-.0392.023807-.0132.1032708-.03152.1765416-.04064.0733512-.00912.1371314-.0224.1417962-.02928.0152815-.0232.0718231-.0456.1447721-.0576.0395711-.00656.0875068-.022.1063271-.0344.0189008-.01216.0797855-.03024.1352011-.04.055496-.00968.113244-.03.128445-.04512.0152815-.0152.0592762-.03248.0979625-.03864.0387668-.00616.0820375-.02168.096193-.0344.0141555-.0128.0598392-.0296.1015014-.03728.041823-.00776.0892761-.02608.1055228-.0408.016327-.01472.0575067-.0344.091689-.04376.0340214-.00936.0784986-.03.0989276-.04592.0201877-.01584.0660322-.03376.101823-.03976.0357105-.006.0688472-.02096.0735925-.0332.0046649-.01224.0386059-.03096.0752815-.0416s.0723861-.02848.079303-.03968.0431099-.02824.0804289-.03792c.0372386-.00976.0752815-.0272.0844504-.03872.0160858-.02056.0876676-.06112.2005094-.1136.0309652-.0144.0707775-.03896.0884719-.05472.0176943-.01576.0491421-.03376.0699732-.04008.0207506-.00624.0513136-.02488.0679624-.04144.0165684-.01648.0490617-.03472.0721448-.04048s.0612869-.028.0848526-.0496c.0235656-.02136.0541286-.04904.067882-.06136.0137533-.01232.0517962-.0336.0844504-.0472.0326541-.01344.0595174-.03184.0595174-.0408 0-.0088.0194638-.02488.0434317-.03568.0238874-.0108.0596782-.03408.0796246-.05168.0789813-.06984.1475871-.12.1640751-.12.0094906 0 .0246112-.0136.0335389-.03016.0089276-.01656.0345844-.03472.0568632-.04032.0223593-.0056.0406167-.02104.0406167-.0344 0-.0132.0126273-.0288.0281501-.0344.0155228-.00568.0431903-.02528.0616086-.04352.0184986-.01824.047453-.04448.0643431-.0584.113244-.092.3078016-.2652.3253351-.2896.0115818-.01608.0306435-.0292.0423861-.0292s.0252547-.01496.0300804-.0332c.0064042-.019886.0220717-.03547.0420644-.04184.0183378-.0048.033378-.01616.033378-.0252 0-.00912.0402145-.05688.089437-.10616.1064879-.10672.1019839-.10176.2474799-.27344.0632976-.07464.12563-.1416.1384182-.1488.0128686-.0072.0233244-.02296.0233244-.03528 0-.01224.0131099-.03168.0291957-.0432.0160858-.01144.0341823-.03416.0402949-.0504.0079067-.0178964.0231257-.0315787.0418231-.0376.0168901-.00432.035067-.02488.0402949-.04568s.0275871-.0572.0496247-.08088c.0220375-.0236.0400536-.04888.0400536-.056 0-.0072.0154423-.02736.0342627-.04488.0189008-.01744.0423861-.04528.0522788-.06184.0480161-.0804.090563-.14208.1146917-.16624.0147185-.01464.0387668-.04816.0534853-.07464l.062252-.11136c.0195442-.03488.0467292-.06768.0603217-.07288.0136729-.0052.024933-.0204.024933-.03368 0-.03088.1086595-.2008.1283646-.2008.0082037 0 .0195442-.02496.0253351-.05544.0057105-.03048.0205898-.06384.0330563-.07408.0124665-.0104.0371582-.04832.0548526-.08456.0299195-.06128.0503485-.09952.1076139-.20192.0123861-.022.0336193-.06496.0474531-.09544.0136729-.03048.0344236-.06288.0460858-.072.0117426-.00912.0291153-.0464.0386863-.08272.0096515-.03632.0276676-.07464.0403753-.08512.0126274-.0104.0278285-.04184.0337802-.06984s.0239678-.06528.0400536-.08288c.0161662-.0176.0381233-.0668.0488204-.10936.010697-.04256.0292761-.08112.0413405-.08568.014075-.00536.0212332-.03216.0201072-.07464-.001126-.03648-.0052279-.05408-.0091689-.03904-.003941.01496-.0230027.03216-.042386.03816-.019303.006-.0583915.0296-.0868633.05272-.1009384.08176-.1417963.10952-.1775067.12064-.019866.00624-.0361931.0176-.0361931.02544 0 .01752-.1560321.12032-.2050938.13504-.0198659.006-.036193.01736-.036193.02528 0 .01704-.1558713.11864-.2063807.13456-.0192225.00608-.0349062.01816-.0349062.02688 0 .00864-.0325737.03016-.072386.04768-.0398124.01752-.0723861.03816-.0723861.04584s-.0244504.022-.05437.03184c-.0299195.00984-.066756.0316-.0820375.04832-.0152815.0168-.0481769.03496-.0730295.0404-.0248525.00544-.0490617.01984-.053807.032-.0047453.01224-.0394102.03056-.0773726.04064-.0378016.01016-.0780161.0316-.0892762.0476-.01126.016-.0415013.03376-.0671581.0392-.0255764.0056-.0586327.0236-.0733512.03984-.014799.01616-.0533244.0344-.0855764.0404-.0323325.00608-.0680429.02416-.0793834.04032-.0114209.01616-.044236.03432-.0729491.0404-.0287936.00608-.0643432.02176-.0793029.03472-.014799.01304-.0574263.0304-.0946649.0388-.0372386.00832-.0850134.02872-.1061662.04528-.0212333.01656-.0672386.03488-.1023861.0408-.0351474.00592-.0638606.01672-.0638606.024 0 .0164-.0803485.0416-.1750938.05504-.0387668.00544-.0874263.02312-.1080161.0392-.021555.01696-.0797855.03416-.1367292.04056-.0545309.00616-.1145309.02112-.1332708.0332-.1045576.06768-.3251743.0324-.2580965-.04136.0153619-.01688.0379624-.03072.0501072-.03072.0122252 0 .0265416-.0112.0317695-.0248.01126-.0292.1726809-.1352.2059785-.1352.0125469 0 .0329759-.01424.0452011-.03168s.0488204-.04272.0813137-.05624c.0324933-.01344.0590348-.0312.0590348-.0392 0-.00808.0163271-.01976.036193-.026.0199464-.00616.0595175-.03.0879089-.05304.1005362-.08144.1465415-.11384.1616622-.11384.0082842 0 .0370777-.01976.063941-.044.0989276-.08904.1365684-.11632.1739678-.12568.020992-.0052.0426274-.0232.0478553-.04.0053887-.01664.0164879-.0304.0249329-.0304.0082038 0 .0307239-.01792.0499464-.04.019303-.02192.0416622-.04.049866-.04.0080429 0 .0341823-.01968.0579892-.044.023807-.02416.104236-.09792.1787936-.164.2044504-.18096.3408579-.3204.5710456-.584.0230027-.0264.0722252-.0816.1093834-.12256.0370777-.04096.0783378-.09232.091689-.114.0613673-.10056.1142091-.17136.1277211-.17136.0081234 0 .019866-.01624.0261395-.036.006193-.01976.0283914-.05632.0493029-.0812s.0380429-.05424.0380429-.06512c0-.01096.0180965-.0356.0402145-.05472.0221179-.0192.0402145-.0464.0402145-.06056s.0180965-.0472.0402144-.07328c.022118-.02616.0402145-.05744.0402145-.06944s.0135121-.03128.03-.0428c.0164879-.01144.0351475-.044.0413405-.07216s.0242091-.06776.0400536-.088c.0157641-.02016.0375603-.06368.0483378-.09656.0107775-.03296.0287936-.06536.0399732-.072.0112601-.00672.0292761-.04816.0402145-.09216.0109383-.044.029437-.0908.0411796-.104s.0289544-.05184.0382842-.08592c.0092493-.034.028311-.0744.0422252-.08976.0139946-.01536.032252-.0696.0405362-.12032.0082842-.0508.0255764-.104.0382842-.11824.0128686-.01416.0281501-.06176.0341018-.10576.0060322-.044.0246113-.09936.041421-.12296.0201072-.02832.036193-.09344.0472118-.19024.0091689-.08096.0271045-.16608.0398123-.18904s.0307238-.11704.0402145-.20904c.0109383-.1088.0266219-.18144.0447989-.208.0303217-.0444.0530831-1.3884.0267828-1.58416l-.0119035-.08856-.0176139.06664c-.0096515.03656-.0297587.07976-.0445576.096-.014799.01616-.0319303.04936-.0380429.07376s-.023807.0532-.0393298.064-.0332976.04264-.0394102.07088c-.0062734.02816-.02437.06776-.0402145.088-.0170506.0222624-.0306594.046935-.0403753.0732-.0063539.02-.0289544.05536-.0505094.0784-.0213941.02296-.0389276.05376-.0389276.06832 0 .01464-.0180965.05096-.0402145.0808-.0221179.02984-.0402144.0632-.0402144.07424 0 .01096-.0135121.02936-.03.0408-.016488.01152-.0349866.0436-.0410188.0712-.006193.02776-.0253351.06312-.0424665.07856-.0172118.01552-.0312869.0368-.0312869.04744s-.0217158.04656-.0482573.07976c-.0265416.0332-.0482574.06912-.0482574.07976 0 .01056-.0144772.03232-.0321716.04824s-.0321716.0384-.0321716.04992-.0207506.04464-.0460858.07352c-.0253351.0288-.0511528.06872-.0573458.08856-.0062735.01976-.0180161.036-.0261394.036-.0080429 0-.0246917.02344-.0369169.052-.0120643.02864-.0375603.0656-.0564611.0824-.0189813.0168-.0344236.04016-.0344236.05192s-.0144772.0304-.0321716.04136c-.0176944.01104-.0321716.02872-.0321716.03944s-.0173726.03672-.0386059.05776c-.0252944.0267377-.0470522.0565791-.0647453.0888-.0143968.02768-.0320911.05032-.0392493.05032-.0072386 0-.0213137.018-.0313673.04-.0101341.022-.028874.04-.0417426.04-.0128687 0-.0283915.01568-.0345041.0348-.0133512.04176-.1073726.1412-.1334316.1412-.0102145 0-.0184987.01056-.0184987.02344 0 .01296-.0271045.0488-.0603217.07968-.0393357.0368277-.0782127.0741372-.116622.11192-.1051206.104-.2287399.10352-.1463002-.0008.0184986-.02336.0337801-.05456.0337801-.06928s.0180161-.0512.0402145-.08096c.0220375-.02984.0402145-.0632.0402145-.07424 0-.01096.0136729-.0296.030563-.04128.0167292-.01168.0388472-.05208.0490617-.08968.010134-.03768.0281501-.07216.0399731-.07664.0118231-.00448.0257373-.02912.0308043-.05472.0051475-.0256.0235657-.06056.0410188-.07792.0173727-.01728.039008-.058.0479357-.0904.009008-.0324.0263807-.07064.0386059-.08504.0120643-.0144.030563-.056.0410187-.0924.0104558-.03648.0293566-.0704.0419035-.0752s.0278284-.0416.0338606-.08176.0241287-.0896.0400536-.10976.0341823-.06424.0405362-.098c.0064343-.03376.0241287-.07384.0394102-.08904.0153619-.01528.0358713-.07288.0456836-.128.0097319-.0552.0282306-.11616.0410188-.1356.0128686-.01944.0310456-.07728.0405362-.12848.0096515-.05128.0281501-.10512.0413405-.1196.0147185-.01616.0302413-.08656.0402145-.182.0089276-.0856.0267024-.17576.0394906-.2004.013512-.02592.0302413-.13496.0398123-.25928.0090885-.118.0275871-.25632.0410992-.30736.031689-.11952.0323324-.40984.0012064-.53392-.0128686-.05128-.0317694-.19768-.0419839-.32528-.0109383-.13688-.0281501-.25056-.0420643-.27736-.0128686-.02496-.0301609-.10944-.0382842-.18784-.010697-.10304-.0230831-.15072-.0446381-.17216-.016327-.01624-.0345844-.0644-.0404557-.10696-.0057909-.04256-.0213941-.0892-.0345845-.10376-.0132708-.01448-.0304021-.06024-.0382037-.10168-.0078016-.0416-.0257373-.08824-.0400537-.10384-.0142359-.01568-.0343431-.0532-.044638-.08344-.0117942-.0333174-.0273921-.0651791-.046488-.09496-.0179378-.0283569-.031113-.0594303-.039008-.092-.006193-.02856-.0173727-.052-.0246917-.052-.0072386 0-.0291153-.0324-.0484182-.072-.019303-.0396-.0410188-.072-.0484183-.072-.0073994 0-.0218766-.0256-.0321715-.0568-.0104558-.0312-.0355496-.0752-.0558177-.09776-.0801877-.08928-.0924129-.10616-.1137266-.15688-.0120643-.02896-.0334584-.05696-.0472118-.06224-.0138337-.00528-.0317694-.026-.0398123-.046-.0118231-.0292-.0148794-.0204-.0156836.0452-.000563.0448.0105361.10464.0246112.1328.0145577.02896.0323325.12784.0410188.22816.0096515.11112.0246917.1912.0405362.21536.0170509.02584.032252.11776.0466488.28224.0117426.13416.0297587.27992.0400536.32392.026059.1116.0263807.95152.0003217 1.048-.0106166.0396-.0289544.17472-.0407775.30032-.0136729.14656-.0303217.2416-.0461662.26576-.0147185.02232-.0310456.106-.0404558.20688-.0086863.0932-.0267024.1896-.0400536.21424s-.0320911.08744-.0416622.1396c-.0094906.052-.0283914.10688-.041823.12176-.013673.01488-.0289545.06584-.0341823.11328-.0051475.04736-.022681.10936-.0388472.1376-.0183312.0340669-.0318372.0704921-.0401341.10824-.0058713.03112-.0245308.074-.0413405.09536-.0168096.02128-.0368364.07184-.0444772.1124-.0076407.04056-.0243699.08608-.0371581.10112-.0128687.01512-.0318499.05728-.0423057.09376-.0104557.03648-.0291153.07024-.0414209.07488-.0123056.00472-.0273458.0376-.033378.0732s-.02437.0816-.0407775.1024c-.0182365.0243437-.0320132.051696-.040697.0808-.0060322.02376-.0235657.052-.0390885.0628s-.0335389.04376-.0399732.0732c-.0064343.02952-.0246113.06632-.0400536.0816-.0155228.01552-.0331367.04744-.0390081.07096-.0059517.02352-.0287131.05824-.0505898.0772-.0218766.01896-.0399732.0456-.040134.05952-.0002413.02584-.0715014.1404-.1283646.2064-.0176944.02064-.0321716.04584-.0324129.056-.0002413.01984-.0436729.0792-.1163807.15896-.02437.02664-.0442359.0564-.0442359.06616 0 .0096-.0180965.0384-.0402145.064s-.0402145.0516-.0402145.0576c0 .00624-.0198659.03304-.0442359.0596-.0242895.02656-.0587131.0676-.0764075.09112s-.0502681.06344-.0723861.0888c-.0334831.0396777-.0656714.0804188-.0965147.12216-.0388805.0512473-.0804952.1003845-.1246649.1472-.0376407.03912-.0683646.0776-.0683646.08552s-.0180965.0212-.0402145.0296c-.0221179.0084-.0402145.0248-.0402145.03672 0 .01184-.0162466.03672-.036193.0552-.0199464.01864-.0450402.04336-.0558177.05496-.024933.02672-.0409383.04296-.1203217.12192l-.080429.08-.0804289.08-.080429.08c-.0088471.0088-.0460858.04552-.0828418.0816-.0366756.036-.0996515.09792-.1397855.1376-.0401341.0396-.0819571.072-.092815.072-.0109384 0-.0280697.018-.0381233.04-.0101341.022-.0251743.04-.0334585.04s-.0352279.01976-.0597587.044c-.0246113.02424-.0579088.05456-.0739142.06752-.0160858.0128-.0621716.05064-.1024665.08384-.0403753.03312-.0932976.07656-.117748.09648s-.069008.05912-.0990885.0872l-.0546112.05104.086059.01064c.1933512.024.9450402.0008.9921715-.03056.0245309-.01632.0975604-.03576.166488-.04432.0675603-.00832.1384986-.02544.157882-.03808.0193834-.01256.0846917-.02992.1452547-.0384.0715818-.01008.1220107-.02672.14437-.0476.0189008-.01768.0645844-.03696.1015818-.04288.0369973-.00584.0709383-.02048.0756032-.03248.0046648-.012.0387667-.02664.0758445-.03256.0370777-.00592.0813136-.02456.0983646-.0416.0170509-.01688.0539678-.03856.0820375-.04808.031255-.0111448.0608317-.0264868.0879089-.0456.0255549-.0179981.0542436-.0311267.0846112-.03872.0262199-.00576.0546917-.02344.0631368-.03928.0086059-.016.0338605-.03344.0563002-.03904.0222788-.0056.0405362-.01744.0405362-.0264s.0315282-.02968.0700536-.04616c.0386059-.0164.0744772-.04136.0799464-.05544.0053888-.014.0241287-.0256.0413405-.0256.0173727 0 .0423861-.01072.0556568-.024.0267024-.0264.0680429-.0316.0813941-.01008.0048258.00768-.0049866.02616-.0217158.0412-.0166488.01504-.0347453.0448-.040134.06616-.0053888.02136-.0160054.0388-.0236461.0388-.0076408 0-.0427882.02976-.0780161.06608-.0353083.03632-.0728687.07416-.0834853.084s-.0546917.05216-.0979625.09392c-.0432707.04184-.0858176.076-.0945844.076s-.0220375.01088-.0295174.02416c-.0201073.03576-.2613941.23184-.285362.23184-.01126 0-.0243699.0144-.0289544.03192-.0046649.01752-.0217158.0368-.0381233.04296-.0163271.00608-.0391689.024-.0506702.04-.0115818.016-.0285523.02912-.0378017.02912-.0092493 0-.0365147.01976-.0607238.044-.056622.0568-.1117963.09832-.1611796.12152-.0217159.01016-.0579089.0352-.080429.0556l-.0659517.05944c-.013673.01224-.046488.03152-.0727882.04288-.0263003.0112-.0621716.03344-.0796247.04912-.0736729.06632-.1331099.106-.1740483.11624-.0239678.006-.0505898.024-.0591957.03992-.0086059.016-.0308847.03392-.0494638.03976-.0184986.00592-.0474531.0244-.0643431.04112-.0168097.01672-.0450403.0304-.0627346.0304-.0176944 0-.0450402.01256-.0608043.028-.0471314.046-.1899732.128-.2432976.13968-.0273458.006-.0497855.01632-.0497855.02304s-.0271046.026-.0603217.0428c-.0332172.01672-.077614.04304-.0986864.0584-.0210724.01552-.0538069.028-.0727077.028-.0188204 0-.0608848.01808-.0934585.04-.0325737.02208-.065067.04-.0722252.04s-.0455228.01712-.0852547.03792c-.0398123.0208-.0998927.0428-.133512.0488-.0336998.00616-.0743164.02416-.0903218.04-.0160053.016-.0571045.03416-.0916085.04056-.0343432.00632-.0743968.02216-.0889545.03512-.0144772.01304-.070134.02976-.1234584.03728s-.1174263.028-.1423593.0456c-.0250938.01752-.0811528.0368-.1245844.04272-.0434316.006-.0961126.02192-.1169437.03544-.0207507.0136-.1004558.03096-.1769437.03872-.0891957.00896-.1497587.02336-.1680965.03992-.0188204.0168-.0806703.03104-.1781502.0408-.0821984.00824-.1783914.0264-.2137801.04032-.0468097.0184-.1506435.02824-.3814746.03592-.1744504.00584-.3213136.01464-.3262198.0196-.0119035.01184.0724665.1004.1085791.11384.0154424.00576.0282306.01976.0283914.03104.0002413.0112.0265416.04208.0584719.06848.1302949.10752.1557909.12952.1902949.164.0198659.01976.0431903.036.0518767.036.0086863 0 .0295174.0152.0464075.0336.01689.01864.0579088.0476.0909651.0644.0332172.0168.0603217.03696.0603217.04456 0 .00768.0163271.01816.0361931.0232.0198659.0052.0571849.0276.0829222.04984s.0587131.0404.0732708.0404c.014638 0 .0510724.018.0810724.04s.0636997.04.0748793.04c.0112601 0 .0332976.0136.0491421.03024s.0699732.03864.1200804.0488c.0501877.01032.0997319.0288.109866.04104.0102145.01232.0506702.02712.0899196.03296.0391689.00584.0884718.024.1093833.0404.0255765.02016.086059.0352.1861126.0464.0814746.00928.1674531.02672.1910188.0388.0442359.02272.1051207.0292.5414477.0576.141555.00928.2827078.0208.313673.02584l.0563002.00896-.0603217.03088c-.0331367.01696-.0603217.03672-.0603217.04392 0 .03088-.1027078.05416-.3041823.06896-.1397051.01024-.2284182.02416-.2521448.03952-.1089812.07112-1.6582842.07072-1.7674263-.0004-.027748-.01808-.101823-.0304-.2412868-.04008-.1327078-.00912-.2141019-.02224-.2387132-.03824-.0205898-.01344-.0858981-.0296-.1452547-.036-.0670777-.00704-.1224933-.02288-.1466219-.04176-.023807-.01864-.0835657-.036-.1538606-.0448-.0632172-.008-.1270778-.02496-.1418767-.03792-.0147989-.01304-.059437-.0288-.0992493-.03504-.0398124-.0064-.0875872-.02536-.1061663-.0424-.0186595-.01696-.0711796-.0368-.1167828-.044-.0456032-.00704-.0955496-.024-.110992-.0376-.0152815-.01344-.0533243-.02968-.0842895-.036-.0309651-.0064-.0707775-.0248-.0884718-.0408-.0176944-.01616-.0634585-.03632-.1016622-.04488-.0382842-.00856-.0817159-.02608-.0965148-.03896-.0148793-.01288-.0526005-.03152-.0838874-.0416-.0312064-.00984-.0691689-.0324-.0842895-.04992-.0150402-.0176-.0456032-.032-.0678016-.032s-.0546917-.01416-.0721448-.03152c-.0207606-.0192542-.0456507-.0335615-.0727882-.04184-.0225201-.0056-.0476944-.02256-.0557373-.0376s-.0444772-.03616-.0809115-.04704c-.0363539-.01088-.0701341-.03008-.0750402-.0428-.0048258-.0128-.0223593-.0232-.0387668-.0232-.0164879 0-.0546917-.0216-.0848525-.048-.0302413-.0264-.0657909-.048-.0790617-.048-.0131903 0-.0334584-.0112-.0449598-.02496-.0115013-.01376-.0431099-.03648-.0702949-.0504s-.0589544-.03864-.0704557-.05496c-.0115818-.01624-.0315282-.0296-.0443968-.0296-.0128687 0-.0357909-.0144-.0509116-.032-.015201-.0176-.0355496-.032-.045201-.032-.0096515 0-.0419839-.0216-.0717427-.048-.0297587-.0264-.0589544-.048-.0649061-.048-.0059518 0-.0303217-.018-.0542091-.04s-.0497856-.04-.0575872-.04-.0187399-.0144-.0243699-.032c-.0056301-.0176-.019866-.032-.0317695-.032-.0254155 0-.1980161-.13728-.356622-.2836-.0212332-.0196-.0529222-.04328-.0703753-.05256-.0175335-.00936-.0318499-.02752-.0318499-.0404s-.0087667-.02344-.0194638-.02344c-.0232439 0-.0201072.00288-.4031903-.37896-.3994906-.3984-.3816354-.37952-.3816354-.40168 0-.01064-.0106166-.01936-.0235657-.01936-.0128686 0-.0313673-.01464-.0410188-.03248-.0096514-.01784-.0569437-.07168-.1051206-.1196l-.0876676-.0872v.1972c0 .14232.0066756.2104.0238874.2448.0131904.02624.0318499.10472.0415818.1744.0116622.0836.0275067.136.0464879.1536.0158445.01472.0337802.0536.0399732.08632.0061931.03272.0213941.0696.0337802.082.0123861.01232.030563.05168.0402145.08752.0096514.03584.0318498.0804.0493029.09896.0173727.01864.03563.0496.0405362.06904.0048257.0192.0183378.03872.0299196.0432.0115818.0044.0297587.03416.0402949.06608.0106166.032.0337802.07384.0514745.09312.0671582.07352.1255496.16056.1255496.18736 0 .01536.0144772.03168.0321716.03632.0175335.00456.0369973.0216.0431099.03784s.0242091.03896.0402949.0504c.0160858.01152.0291957.02976.0291957.04048s.019866.03776.044236.06c.0243699.0224.0623324.06464.0844504.09384.0221179.0292.0601608.07272.0844504.09672.0243699.02392.0442359.05096.0442359.06s.0180965.02816.0402145.04264c.0221179.0144.0402144.036.0402144.04792 0 .012.0150403.0256.0333781.0304.0198957.0062398.0355154.0216867.0419034.04144.0048258.01792.0222789.03696.0390885.04224.0167292.00528.0304022.016.0304022.024 0 .00784.0221984.0368.0493029.06448.047051.04784.0480161.0516.0217158.08056-.0353887.0388-.0634584.03856-.0912064-.0008-.0120643-.0172-.0538874-.0384-.0929759-.0472-.039008-.00864-.0784986-.02608-.0876675-.03856-.0092494-.01256-.0402145-.028-.0688472-.03424-.0285523-.00624-.0610456-.024-.0721448-.03936-.0110188-.01536-.0439946-.03616-.0731099-.04616-.0337778-.0124345-.0656414-.0295065-.0946649-.05072-.0229222-.01792-.0513137-.03256-.0630563-.03256s-.0287936-.01384-.0378016-.03072c-.0091689-.01688-.0387668-.03552-.0657909-.04144s-.057748-.02448-.0683646-.04128c-.0104558-.0168-.027748-.03056-.0382038-.03056-.0104557 0-.0394101-.01688-.064504-.0376-.0272389-.0221652-.0561437-.0422238-.0864611-.06-.097319-.0532-.1446113-.08816-.1526542-.1128-.0046648-.01456-.0257372-.03072-.0466487-.036-.0400537-.00992-.0960322-.0512-.1707507-.1256-.0242896-.02424-.0495443-.044-.0559786-.044s-.0281501-.01616-.0482573-.036c-.0201073-.01984-.0463271-.04464-.0582306-.0552-.0141452-.0128456-.0278267-.0261874-.0410188-.04-.0106166-.01144-.0486595-.04592-.0844504-.07664s-.065067-.06408-.065067-.07416-.0150402-.02216-.033378-.02696-.0369973-.02296-.0416622-.0404c-.0061522-.0189935-.0211192-.0338807-.0402145-.04-.0175335-.00456-.0358713-.0232-.0406166-.04144-.0048257-.01824-.0184987-.0332-.0304022-.0332-.0119839 0-.0293565-.01424-.0387667-.03168-.0093298-.01736-.0331367-.04864-.0528418-.06944-.1141287-.12056-.2410456-.2824-.2675067-.34104-.0085255-.0188-.0321716-.05248-.052681-.0748-.0661126-.072-.1044772-.13-.1155764-.17504-.0059518-.02424-.0183378-.044-.0275067-.044s-.030563-.03144-.0477748-.06992c-.017051-.0384-.0412601-.07824-.0537266-.08856-.0124664-.01024-.0275871-.04512-.0336997-.0776-.0061126-.03232-.0241287-.068-.0400536-.07904s-.0340215-.04008-.0401341-.06448-.0209115-.05528-.0329758-.06864c-.0120644-.01336-.03-.05936-.0396515-.10224-.0096515-.0428-.0309651-.09488-.0472922-.1156-.0164075-.0208-.0349062-.0648-.0410188-.09776-.006193-.03312-.0219571-.07208-.0351474-.08664-.01311-.01456-.031126-.07896-.0401341-.1432-.0093298-.06696-.0261394-.12384-.039571-.1336-.0130295-.0096-.0304022-.06616-.0394102-.1288-.0090081-.0616-.0278284-.13264-.0419839-.158-.017051-.03056-.0304826-.1168-.0398928-.256-.0087668-.12856-.0246113-.23472-.0408579-.27392-.055496-.13344-.0557373-1.4456-.0002413-1.56.0177748-.03656.0321716-.12704.0415013-.26064.0098928-.1424.021555-.21296.0383647-.232.0132707-.01504.0292761-.06984.0355496-.12184.011823-.09736.0365951-.1696.0582305-.1696.006756 0 .0172922-.04128.0234048-.092.0060322-.05056.02437-.11712.0406971-.148.0198193-.0399659.0356589-.0817651.0472922-.1248.0096515-.03776.0278284-.0728.0403754-.0776.0125469-.0048.0273458-.03488.032815-.06704.00563-.03216.0226809-.07648.0381233-.09848.0154423-.022.0372386-.06752.0484182-.10112.0110992-.0336.0302413-.06496.0426274-.06968.0122252-.00464.0299195-.03696.0394102-.07168.0093297-.03472.0275067-.0672.0402949-.07208.0128686-.00488.0233244-.0192.0233244-.03184 0-.0128.016327-.03936.036193-.05936.0199464-.02.0487399-.0628.0641019-.09528.0152815-.0324.0347453-.05896.0431099-.05896.008445 0 .0204289-.01616.026622-.036.0062734-.01976.0285522-.054.0495442-.076l.0701341-.07368c.0176943-.01856.0320107-.03896.0320107-.04536 0-.0288.3774531-.4072.5163539-.51776.0566219-.04504.1182305-.09664.1368096-.11456.0186595-.01792.0408579-.03264.0493834-.03264s.0314477-.01824.0509115-.04048c.0193834-.02224.0569437-.0448.0833244-.05.0269437-.00536.0479357-.01976.0479357-.03288 0-.01288.0217158-.0316.0482573-.0416.0265416-.00992.0482574-.02408.0482574-.03144s.0317695-.02736.0707775-.04448c.0387668-.01712.0743164-.04096.0789812-.05304.0046649-.01208.0278285-.0268.0514746-.03264.0234852-.00592.0579892-.02488.0766488-.04208.018579-.01728.0494638-.03136.0686863-.03136.0191421 0 .0542895-.01792.0780161-.03984.0238069-.02192.0620911-.04456.0850938-.0504.0230831-.00568.0553351-.02376.0717426-.04008s.050992-.02968.0768901-.02968.0673995-.01696.0924933-.03792c.0250134-.02088.068445-.04296.0965952-.04904.0281501-.00608.0595174-.02104.0696515-.0332.010134-.01216.0595174-.03056.1096246-.04088.0501877-.0104.1074531-.0316.1273191-.0472.0198659-.01544.0632975-.0332.0965147-.03928.0332976-.00616.0723861-.02176.0867024-.03456.0144772-.01288.0756032-.03104.1356837-.0404.0623324-.00968.1288471-.0312.154504-.05008.069008-.05072.2962198-.05008.3659517.00104.027185.02.0823593.04256.1224933.05008.0402145.00744.0854156.02456.1005362.03816.0152815.01352.0541287.02944.0865416.03544.0324128.006.0742359.02504.0928954.0424.01874.01736.0700536.0372.1142091.044.0439947.00704.092815.02424.1085791.03832.0155228.01408.0584719.0304.0953083.03624.0368365.00584.0813941.024.0990081.0404.0176943.0164.063378.0344.1015817.04.0382038.0056.0927346.02344.1212065.03952.0285523.01616.0774531.03408.1087399.03992.0313673.00584.0734317.0236.0936998.03944.0201876.01584.0793029.03656.13126.04616.0519571.00952.1064879.02816.121126.04136.0147185.01328.0369973.02416.0496247.02416.0443968.00016.1426809.03344.1652815.05592.0126273.01248.0681233.03.1232976.0388.0552547.0088.1121984.0264.1265147.0392.0143164.01272.0604826.02824.1025469.0344.0421448.00624.0938606.0248.1150134.04128.0214746.0168.0854156.03664.1462199.0452.0593565.00832.1198391.02576.1343968.03872.0145576.01296.0627345.02848.1069705.0344.0442359.006.0992493.024.1223324.04024.0236461.01656.097319.03712.1681769.04688.0694102.0096.1419572.02776.1613405.0404.019303.01256.0739947.02752.1214478.0332.047453.0056.1065683.02472.1315817.04216.0319303.0224.088311.03584.1900536.04536.0796247.00736.1609384.024.1809652.03712.0199464.01304.0959517.0308.1689008.0396.0796247.00952.1439678.02624.1610992.0416.0206702.01872.0845308.03.2317962.0412.1117963.00848.2288204.02608.2601073.03912.0335388.01392.1609383.03064.310134.04056.1392225.00928.2929223.02752.3415818.04056.122252.03264.541689.03248.6500268-.00016.0435121-.01312.1621448-.0316.263807-.04096.1096246-.01016.1994638-.0268.22126-.04104.0201877-.01312.0842896-.03064.1424397-.0388.067882-.0096.1169437-.02608.1370509-.04608.0172118-.01712.0571046-.036.0885523-.04184s.057185-.01736.057185-.02544c0-.00816.0308043-.02904.0683646-.04648.1060054-.04912.3052279-.21736.3572654-.30168.0092494-.01488.0312065-.05104.0489008-.0804.0203166-.0329141.0431736-.0642083.0683646-.0936.0199464-.02208.0361931-.05808.0361931-.08 0-.02184.014075-.0624.0312064-.09.0172118-.02768.0386863-.096.0476944-.15184.0090885-.05584.0275871-.1184.0411796-.13904.0316086-.04808.0318499-.16536.0003217-.21008-.0133512-.01904-.0324128-.0944-.0422252-.16728-.0098927-.07296-.0273458-.14728-.039008-.16504-.0115818-.01768-.0297587-.08264-.0405362-.14416-.0106166-.0616-.0295979-.11936-.0420644-.12848-.0125469-.00904-.0296782-.04736-.0382037-.08512s-.0291957-.088-.0458445-.1116c-.0167292-.0236-.0353083-.07144-.0412601-.1064-.0060321-.0348-.0239678-.07248-.0398927-.0836-.015925-.01104-.0337802-.03952-.0398928-.06328-.0087509-.0292215-.0226087-.0566811-.0409383-.08112-.0187823-.0256577-.0325095-.0546213-.0404558-.08536-.0057909-.02608-.0238874-.05448-.0402145-.0632-.0187013-.011567-.0329716-.0290281-.0405362-.0496-.0059517-.0184-.0246917-.04736-.041823-.0644-.0171314-.01704-.0353888-.05232-.0406166-.0784-.0053084-.02616-.019866-.04752-.0324933-.04752-.0126274 0-.030563-.0216-.0398124-.048-.0092493-.0264-.0231635-.048-.0308847-.048-.0078016 0-.0257373-.02256-.040134-.05008-.024933-.048-.0557373-.08672-.1294102-.1628-.0186595-.01936-.0390885-.05136-.045362-.0712-.006193-.01968-.0209115-.036-.0324933-.036-.0116622 0-.0341018-.01968-.0497855-.044-.0382037-.05872-.633941-.64984-.6793834-.674-.0196246-.01048-.0357104-.02912-.0357104-.04144 0-.01224-.0162467-.02736-.036193-.0336-.019866-.00608-.0662735-.04256-.1029491-.08104-.036756-.0384-.0734316-.06984-.081555-.06984-.0080429 0-.039008-.0216-.0685254-.04776-.0295979-.02624-.0670778-.052-.0833244-.05704-.0163271-.00512-.0295979-.01952-.0295979-.032 0-.0124-.0182574-.0272-.0406166-.0328-.0223593-.0056-.0479357-.02368-.0568633-.04024-.0088472-.01656-.0257372-.03016-.037319-.03016s-.0348257-.0152-.0517158-.0336c-.0222011-.02261226-.0476855-.04178543-.0756032-.05688-.0430295-.02208-.0603218-.03528-.1438874-.1096-.0197856-.0176-.0632172-.04416-.0965148-.0592-.0332171-.01488-.0604826-.03472-.0604826-.044 0-.0092-.0102949-.0168-.0229222-.0168-.0125469 0-.0441555-.01768-.0701341-.03944-.0259785-.02176-.064504-.04704-.0856568-.05608-.0211528-.00912-.0710188-.04176-.1108311-.07256s-.1031099-.07016-.1407507-.08736c-.0376407-.01728-.0683646-.038-.0683646-.04616s-.0176944-.01928-.039571-.0248c-.0217158-.00536-.0589545-.02776-.0827614-.04968-.0237266-.02192-.0552547-.03984-.0698928-.03984-.0147185 0-.0512332-.018-.0812332-.04s-.0636998-.04-.074799-.04c-.01126 0-.033378-.01368-.0492225-.03048s-.0587131-.0384-.0953083-.04808c-.0365147-.00968-.0750402-.028-.0855764-.04056-.0104558-.01256-.0402145-.02744-.066193-.03312-.0258981-.00568-.0561394-.02296-.0672386-.03848-.0110188-.01544-.0418231-.03312-.0683646-.03928-.0734317-.01688-.1367293-.04432-.1367293-.0592 0-.00736-.0246917-.018-.0549329-.0236-.0301609-.0056-.0698928-.02416-.0882306-.0412-.0184182-.01696-.0663539-.03704-.1065684-.04448-.0402144-.00752-.0855764-.02464-.100697-.03824-.0152011-.0136-.0553351-.02968-.0891957-.036-.0337802-.00616-.0736729-.02416-.0884719-.03984-.0147989-.01568-.0697319-.03632-.1220911-.04592-.0522788-.0096-.1071314-.02824-.1217695-.04136-.014638-.0132-.0616085-.0288-.1043967-.03456-.0427883-.00584-.0910456-.02384-.1072923-.04-.0183378-.01824-.0643431-.03296-.1220911-.0392-.050992-.00536-.1216086-.02272-.1569973-.03856-.0353888-.01584-.1105899-.03648-.1672118-.04592-.0565416-.00944-.1152547-.02832-.1304558-.042-.0183378-.01648-.0820375-.0296-.189008-.0388-.0887132-.00768-.1856301-.02504-.2153084-.03856-.0297587-.0136-.1431635-.03232-.2523056-.04176-.1242627-.0108-.2173995-.02728-.2493297-.044-.0439947-.02304-.1262735-.02776-.5910724-.03376l-.54-.00688-.1275604-.11728c-.1753351-.1612-.1954423-.1776-.2964611-.23968-.0486595-.02992-.1053619-.06904-.1260322-.0868-.0206702-.01784-.0468096-.0324-.0581501-.0324-.01126 0-.0378016-.01336-.0589544-.02968-.0210724-.01632-.0654692-.03848-.0985255-.0492-.0331367-.01072-.0661126-.03-.0733512-.0428-.0071582-.0128-.0501877-.02912-.0954692-.03624-.0453619-.0072-.1002949-.02456-.1220107-.03872s-.0783378-.03072-.1257909-.0368c-.0895174-.01128-.1426005-.0312-.1616622-.06048-.0128686-.01968-.8010723-.03008-.9057908-.012" fill="#ba2bd2"/></g><g transform="translate(59 202)"><rect fill="#000" filter="url(#e)" height="62" rx="30.959998" width="62"/><rect fill="#fff" fill-rule="evenodd" height="63" rx="30.959998" stroke="#545e6f" stroke-opacity=".04" width="63" x="-.5" y="-.5"/></g><g transform="translate(77.944444 220.944444)"><path d="m0 12.0555556v-9.93995558c0-1.16841363.94718639-2.11560002 2.11560002-2.11560002h19.87991108c1.1684136 0 2.1156.94718639 2.1156 2.11560002v19.87991108c0 1.1684136-.9471864 2.1156-2.1156 2.1156h-19.87991108c-1.16841363 0-2.11560002-.9471864-2.11560002-2.1156" fill="#007acc"/><path d="m5.28671569 12.0981046v.9821732h3.13444444v8.9211111h2.22389547v-8.9211111h3.1344444v-.9644445c0-.5425 0-.9828823-.0241111-.9949379 0-.0177287-1.910451-.0241111-4.23150001-.0241111l-4.21944445.0184379v.9885556l-.0184379-.0063824zm14.08656211-1.0069935c.6148333.1446667 1.085.4219445 1.5069444.8616177.2233824.2411111.5545556.6637647.5786667.7715555 0 .0361667-1.042451.7417713-1.6757222 1.1332222-.0241111.0184379-.1205556-.0843889-.217-.2411111-.3134445-.4453464-.6332713-.6382353-1.1332223-.6744019-.7233333-.0489314-1.2055555.3311732-1.2055555.9644444 0 .1921797.0361667.3013889.1085.4581111.1631046.3311732.4637843.5297353 1.3984444.9396242 1.7239445.7417712 2.4713889 1.2303758 2.9238268 1.9288889.5120066.7843203.6261798 2.0139869.282951 2.9358823-.3857778 1.0069935-1.3261111 1.6877778-2.6706601 1.9111602-.4219445.0723333-1.3856798.0602778-1.8381177-.0184379-.9644444-.1808334-1.8863398-.6630556-2.4536601-1.2835621-.2226732-.2411111-.651-.8864379-.6268889-.928987l.2290556-.1439575.9048758-.5247712.6807843-.3978333.1567222.2106176c.1985621.3134444.6453268.7353889.9041667.8800556.7836111.4042156 1.8324444.3496111 2.3508333-.1205556.2226732-.2042353.3191177-.4219444.3191177-.7233333 0-.2765687-.0418399-.4035066-.1808334-.6141242-.1921797-.2659314-.5786666-.4822222-1.6636666-.9644445-1.2473955-.5304444-1.7778399-.868-2.2721177-1.387098-.2836601-.3134444-.5425-.8013399-.6630555-1.2055556-.0907713-.3496111-.1205556-1.2055555-.0361667-1.5487843.259549-1.2055555 1.1693889-2.0494444 2.4713889-2.2905555.4219444-.0843889 1.4168823-.0482222 1.8324444.0602778z" fill="#fff"/></g><g transform="translate(0 19)"><rect fill="#000" filter="url(#f)" height="82" rx="41" width="82"/><rect fill="#fff" fill-rule="evenodd" height="83" rx="41.039996" stroke="#545e6f" stroke-opacity=".04" width="83" x="-.5" y="-.5"/></g><g transform="translate(23.916667 42.916667)"><path d="m17.0833333 0-17.01072913 6.04977778 2.59453125 22.43155552 14.41619788 7.9631111 14.416198-7.9631111 2.5945312-22.43155552" fill="#dd0031"/><path d="m17.0833333 0v4.04533333-.01822222 32.41733329l14.416198-7.9631111 2.5945312-22.43155552" fill="#c3002f"/><path d="m17.0833333 4.02711111-10.63437497 23.77999999h3.96546877l2.1375521-5.3208889h9.0264062l2.1375521 5.3208889h3.964401zm3.1070313 15.17911109h-6.2140625l3.1070312-7.4528889z" fill="#fff"/></g></g></svg>