<svg height="297" viewBox="0 0 217 297" width="217" xmlns="http://www.w3.org/2000/svg" xmlns:xlink="http://www.w3.org/1999/xlink"><linearGradient id="a"><stop offset="0" stop-color="#fbd863"/><stop offset="1" stop-color="#ff5acd"/></linearGradient><linearGradient id="b" x1="86.394305%" x2="28.862668%" xlink:href="#a" y1="117.812177%" y2="31.931173%"/><linearGradient id="c" x1="100%" x2="30.962171%" xlink:href="#a" y1="133.391584%" y2="20.651727%"/><filter id="d" height="168.1%" width="168.1%" x="-34%" y="-24.3%"><feMorphology in="SourceAlpha" operator="dilate" radius="1" result="shadowSpreadOuter1"/><feOffset dx="0" dy="2" in="shadowSpreadOuter1" result="shadowOffsetOuter1"/><feGaussianBlur in="shadowOffsetOuter1" result="shadowBlurOuter1" stdDeviation="1.5"/><feComposite in="shadowBlurOuter1" in2="SourceAlpha" operator="out" result="shadowBlurOuter1"/><feColorMatrix in="shadowBlurOuter1" result="shadowMatrixOuter1" type="matrix" values="0 0 0 0 0.329411765   0 0 0 0 0.368627451   0 0 0 0 0.435294118  0 0 0 0.0362035779 0"/><feMorphology in="SourceAlpha" operator="dilate" radius="1" result="shadowSpreadOuter2"/><feOffset dx="0" dy="5" in="shadowSpreadOuter2" result="shadowOffsetOuter2"/><feGaussianBlur in="shadowOffsetOuter2" result="shadowBlurOuter2" stdDeviation="6"/><feComposite in="shadowBlurOuter2" in2="SourceAlpha" operator="out" result="shadowBlurOuter2"/><feColorMatrix in="shadowBlurOuter2" result="shadowMatrixOuter2" type="matrix" values="0 0 0 0 0.329411765   0 0 0 0 0.368627451   0 0 0 0 0.435294118  0 0 0 0.08 0"/><feMerge><feMergeNode in="shadowMatrixOuter1"/><feMergeNode in="shadowMatrixOuter2"/></feMerge></filter><filter id="e" height="168.3%" width="168.3%" x="-34.1%" y="-24.4%"><feMorphology in="SourceAlpha" operator="dilate" radius="1" result="shadowSpreadOuter1"/><feOffset dx="0" dy="2" in="shadowSpreadOuter1" result="shadowOffsetOuter1"/><feGaussianBlur in="shadowOffsetOuter1" result="shadowBlurOuter1" stdDeviation="1.5"/><feComposite in="shadowBlurOuter1" in2="SourceAlpha" operator="out" result="shadowBlurOuter1"/><feColorMatrix in="shadowBlurOuter1" result="shadowMatrixOuter1" type="matrix" values="0 0 0 0 0.329411765   0 0 0 0 0.368627451   0 0 0 0 0.435294118  0 0 0 0.0362035779 0"/><feMorphology in="SourceAlpha" operator="dilate" radius="1" result="shadowSpreadOuter2"/><feOffset dx="0" dy="6" in="shadowSpreadOuter2" result="shadowOffsetOuter2"/><feGaussianBlur in="shadowOffsetOuter2" result="shadowBlurOuter2" stdDeviation="7"/><feComposite in="shadowBlurOuter2" in2="SourceAlpha" operator="out" result="shadowBlurOuter2"/><feColorMatrix in="shadowBlurOuter2" result="shadowMatrixOuter2" type="matrix" values="0 0 0 0 0.329411765   0 0 0 0 0.368627451   0 0 0 0 0.435294118  0 0 0 0.08 0"/><feMerge><feMergeNode in="shadowMatrixOuter1"/><feMergeNode in="shadowMatrixOuter2"/></feMerge></filter><filter id="f" height="169%" width="169%" x="-34.5%" y="-24.1%"><feMorphology in="SourceAlpha" operator="dilate" radius="1" result="shadowSpreadOuter1"/><feOffset dx="0" dy="2" in="shadowSpreadOuter1" result="shadowOffsetOuter1"/><feGaussianBlur in="shadowOffsetOuter1" result="shadowBlurOuter1" stdDeviation="1"/><feComposite in="shadowBlurOuter1" in2="SourceAlpha" operator="out" result="shadowBlurOuter1"/><feColorMatrix in="shadowBlurOuter1" result="shadowMatrixOuter1" type="matrix" values="0 0 0 0 0.329411765   0 0 0 0 0.368627451   0 0 0 0 0.435294118  0 0 0 0.0362035779 0"/><feMorphology in="SourceAlpha" operator="dilate" radius="1" result="shadowSpreadOuter2"/><feOffset dx="0" dy="4" in="shadowSpreadOuter2" result="shadowOffsetOuter2"/><feGaussianBlur in="shadowOffsetOuter2" result="shadowBlurOuter2" stdDeviation="5"/><feComposite in="shadowBlurOuter2" in2="SourceAlpha" operator="out" result="shadowBlurOuter2"/><feColorMatrix in="shadowBlurOuter2" result="shadowMatrixOuter2" type="matrix" values="0 0 0 0 0.329411765   0 0 0 0 0.368627451   0 0 0 0 0.435294118  0 0 0 0.08 0"/><feMerge><feMergeNode in="shadowMatrixOuter1"/><feMergeNode in="shadowMatrixOuter2"/></feMerge></filter><g fill="none" transform="translate(-77 -69)"><circle cx="121" cy="121" fill="url(#b)" r="121"/><circle cx="269" cy="346" fill="url(#c)" r="7"/><g transform="translate(209 107)"><rect fill="#000" filter="url(#d)" height="72" rx="35.999997" width="72"/><rect fill="#fff" fill-rule="evenodd" height="73" rx="35.999997" stroke="#545e6f" stroke-opacity=".04" width="73" x="-.5" y="-.5"/></g><g transform="translate(229 127)"><path d="m15.9153439 0-15.9153439 5.627 2.51428571 20.927 13.41798939 7.395 13.4857143-7.48 2.5142857-20.944" fill="#b2b2b2"/><path d="m30.3407407 6.732-14.4761904-4.947v30.4045l12.1312169-6.732" fill="#b52e31"/><path d="m1.77777778 6.8255 2.16719576 18.717 11.93650796 6.647v-30.4045" fill="#e23237"/><path d="m19.2338624 16.915-3.3185185-6.9955-2.9375661 6.97h6.2645502zm1.2698413 2.924h-8.821164l-1.97248679 4.9555-3.67407407.068 9.83703706-21.9725 10.184127 21.9725h-3.4031746l-2.1587302-5.015z" fill="#f2f2f2"/><path d="m15.8730159 2.89.0338624 7.038 3.3015873 6.987h-3.3354497v2.924h4.6137566l2.1671958 5.015 3.5132275.085" fill="#b2b2b2"/></g><g transform="translate(133 191)"><rect fill="#000" filter="url(#e)" height="82" rx="41" width="82"/><rect fill="#fff" fill-rule="evenodd" height="83" rx="41.039996" stroke="#545e6f" stroke-opacity=".04" width="83" x="-.5" y="-.5"/></g><g transform="translate(158.055556 216.055556)"><path d="m2.80439994 0h26.28008896c1.5488274 0 2.8044 1.25557262 2.8044 2.80439994v26.28008896c0 1.5488274-1.2555726 2.8044-2.8044 2.8044h-26.28008896c-1.54882732 0-2.80439994-1.2555726-2.80439994-2.8044v-26.28008896c0-1.54882732 1.25557262-2.80439994 2.80439994-2.80439994z" fill="#f7df1e"/><path d="m21.4218301 24.9136634c.6415294 1.0485817 1.4772058 1.8195425 2.9553496 1.8195425 1.2417909 0 2.0352615-.6208954 2.0352615-1.4781438 0-1.0279477-.8159804-1.3918562-2.1815752-1.9893039l-.7503268-.3217026c-2.1618791-.9210262-3.597817-2.0746536-3.597817-4.5150915 0-2.2472288 1.711683-3.9579739 4.3884739-3.9579739 1.9048921 0 3.2751764.6631013 4.2618562 2.3991699l-2.3335164 1.4987778c-.5139738-.921964-1.0682777-1.2849346-1.9283398-1.2849346-.8778824 0-1.435.5571176-1.435 1.2849346 0 .8985163.5580555 1.2624248 1.8429902 1.8195425l.7493889.3207647c2.5464215 1.0917255 3.9832973 2.204085 3.9832973 4.7073627 0 2.6974249-2.1196732 4.1755687-4.9652875 4.1755687-2.7827745 0-4.5807451-1.3262026-5.4605033-3.0641471l2.4348105-1.414366zm-10.5861732.2588627c.47083.8356765.8985163 1.5419216 1.9283398 1.5419216.984804 0 1.6056994-.3845425 1.6056994-1.8833202v-10.189438h2.9966176v10.229768c0 3.1035392-1.8195425 4.5150915-4.4738235 4.5150915-2.4001078 0-3.78915033-1.2408529-4.49633334-2.736817z" fill="#000"/></g><g transform="translate(220 293)"><rect fill="#000" filter="url(#f)" height="58" rx="28.799996" width="58"/><rect fill="#fff" fill-rule="evenodd" height="59" rx="28.799996" stroke="#545e6f" stroke-opacity=".04" width="59" x="-.5" y="-.5"/></g><g fill="#61dafb" transform="translate(235.305556 309.916667)"><path d="m27.349921 12.0833333c0-1.7972921-2.2657069-3.50057205-5.7394196-4.55682682.801626-3.51716247.4453477-6.31540808-1.1245032-7.21128909-.3618451-.21014493-.7849255-.30968726-1.2469738-.30968726v1.23321892c.256075 0 .4620483.04977116.6346206.14378337.7570912.43135011 1.0855352 2.07379863.8294602 4.18630816-.0612353.51983219-.1614385 1.06731503-.2839092 1.62585812-1.0911021-.26544622-2.2824074-.47006102-3.534948-.60278413-.7515244-1.02307399-1.530883-1.95213578-2.3158085-2.76506484 1.8147922-1.67562929 3.5182475-2.59363081 4.6761517-2.59363081v-1.23321892c-1.530883 0-3.534948 1.08390542-5.5612805 2.9641495-2.0263324-1.86918382-4.03039742-2.94202898-5.56128044-2.94202898v1.23321892c1.1523374 0 2.86135954.91247139 4.67615174 2.57704042-.7793586.81292906-1.5587172 1.73646072-2.2991079 2.75953471-1.25810752.13272311-2.44941285.33733791-3.54051493.60831426-.12803749-.55301296-.22267389-1.08943554-.28947606-1.6037376-.26164183-2.11250954.06123532-3.75495805.81275971-4.19183829.16700542-.09954234.38411246-.14378337.64018744-.14378337v-1.23321892c-.46761517 0-.89069557.09954233-1.2581075.30968726-1.5642841.89588101-1.91499548 3.68859649-1.10780262 7.1946987-3.46257904 1.0617849-5.71715221 2.75953469-5.71715221 4.55129669 0 1.7972922 2.26570687 3.5005721 5.7394196 4.5568269-.80162601 3.5171625-.44534778 6.3154081 1.12450317 7.2112891.36184507.2101449.78492547.3096872 1.25254065.3096872 1.53088301 0 3.53494805-1.0839054 5.56128045-2.9641495 2.0263325 1.8691839 4.0303975 2.942029 5.5612805 2.942029.4676152 0 .8906956-.0995423 1.2581075-.3096872 1.5642841-.8958811 1.9149955-3.6885965 1.1078026-7.1946987 3.4514454-1.0562548 5.7060186-2.7595348 5.7060186-4.5512968zm-7.2480353-3.68859646c-.2059733.71338673-.4620483 1.44889398-.7515244 2.18440126-.2282407-.4424104-.4676151-.88482078-.729257-1.32723116-.2560749-.44241037-.5288505-.87376049-.801626-1.29405034.7904923.11613272 1.5531504.25991609 2.2824074.43688024zm-2.5496161 5.88958806c-.434214.7465675-.8795618 1.4544241-1.3416102 2.1125096-.8294602.0718917-1.6700542.1106026-2.516215.1106026-.8405939 0-1.6811879-.0387109-2.5050813-.1050725-.4620483-.6580854-.9129629-1.3604119-1.34717701-2.1014493-.4230804-.724447-.80719287-1.4599542-1.15790425-2.2009916.34514454-.7410374.73482385-1.4820747 1.1523374-2.20652172.43421406-.7465675.87956186-1.4544241 1.34161016-2.11250953.8294603-.07189169 1.6700542-.11060259 2.516215-.11060259.840594 0 1.6811879.0387109 2.5050813.10507246.4620484.65808543.912963 1.3604119 1.3471771 2.10144927.4230804.72444701.8071929 1.45995421 1.1579042 2.20099161-.3507113.7410374-.7348238 1.4820748-1.1523374 2.2065217zm1.7980917-.7189168c.3006098.7410374.5566848 1.4820747.768225 2.2009916-.729257.1769641-1.497482.3262776-2.2935411.4424104.2727755-.42582.545551-.8627003.801626-1.3106408.256075-.4424103.4954494-.8903508.7236901-1.3327612zm-5.6447832 5.9006483c-.5177168-.5308924-1.0354336-1.1226163-1.5475835-1.7696414.5010162.0221205 1.0131662.0387109 1.530883.0387109.5232836 0 1.0410004-.0110603 1.5475836-.0387109-.5010163.6470251-1.0187331 1.238749-1.5308831 1.7696414zm-4.14173438-3.2572463c-.79049232-.1161328-1.5531504-.2599161-2.28240741-.4368803.20597336-.7133867.46204833-1.4488939.75152439-2.1844012.22824075.4424104.46761518.8848208.72925701 1.3272311.26164182.4424104.52885049.8737605.80162601 1.2940504zm4.11390018-11.50819988c.5177168.53089245 1.0354336 1.12261632 1.5475836 1.7696415-.5010163-.02212052-1.0131663-.03871091-1.5308831-.03871091-.5232836 0-1.0410004.01106026-1.5475835.03871091.5010162-.64702518 1.018733-1.23874905 1.530883-1.7696415zm-4.11946703 3.25724638c-.27277551.42581998-.54555103.86270023-.80162601 1.31064073-.25607498.44241037-.49544941.88482077-.72369016 1.32723117-.30060975-.74103742-.55668473-1.4820748-.76822493-2.20099166.729257-.17143402 1.49748194-.32074752 2.2935411-.43688024zm-5.03799683 6.9237223c-1.97066396-.8350495-3.245472-1.9300152-3.245472-2.7982456 0-.8682303 1.27480804-1.9687261 3.245472-2.79824558.47874887-.2046148 1.00203252-.38710908 1.54201671-.5585431.3173103 1.08390542.73482385 2.21205188 1.25254065 3.36784898-.51214996 1.150267-.92409666 2.2728833-1.23584011 3.3512586-.55111789-.171434-1.07440154-.3594585-1.55871725-.5640733zm2.99496386 7.9025553c-.75709124-.4313501-1.08553523-2.0737986-.82946025-4.1863081.06123532-.5198322.16143857-1.067315.28390921-1.6258581 1.09110208.2654462 2.28240741.470061 3.53494804.6027841.7515244 1.023074 1.530883 1.9521358 2.3158085 2.7650648-1.8147922 1.6756293-3.5182475 2.5936308-4.67615175 2.5936308-.25050813-.0055301-.46204833-.0553012-.62905375-.1493135zm13.2045619-4.2139588c.2616418 2.1125096-.0612353 3.7549581-.8127597 4.1918383-.1670054.0995424-.3841125.1437834-.6401875.1437834-1.1523374 0-2.8613595-.9124714-4.6761517-2.5770404.7793586-.8129291 1.5587172-1.7364607 2.2991079-2.7595347 1.2581075-.1327231 2.4494128-.3373379 3.5405149-.6083143.1280375.5585431.2282408 1.0949657.2894761 1.6092677zm2.1432362-3.6885965c-.4787489.2046148-1.0020325.3871091-1.5420167.5585431-.3173103-1.0839054-.7348239-2.2120518-1.2525407-3.3678489.51215-1.150267.9240967-2.27288332 1.2358402-3.35125861.5511178.17143402 1.0744015.35945843 1.5642841.56407323 1.9706639.83504958 3.2454719 1.93001528 3.2454719 2.79824558-.0055668.8682304-1.2803748 1.9687262-3.2510388 2.7982456z"/><ellipse cx="13.688878" cy="12.083333" rx="2.544049" ry="2.527269"/></g></g></svg>