<?xml version="1.0" encoding="UTF-8" standalone="no"?>
<!DOCTYPE svg PUBLIC "-//W3C//DTD SVG 1.1//EN" "http://www.w3.org/Graphics/SVG/1.1/DTD/svg11.dtd">
<svg version="1.1" xmlns="http://www.w3.org/2000/svg" xmlns:xlink="http://www.w3.org/1999/xlink" preserveAspectRatio="xMidYMid meet" viewBox="0 0 512 512" width="512" height="512"><defs><path d="M0 0L512 0L512 512L0 512L0 0Z" id="bESlv7Djk"></path><linearGradient id="gradientcn1EHmIvN" gradientUnits="userSpaceOnUse" x1="512" y1="0" x2="1.66" y2="512"><stop style="stop-color: #b721ff;stop-opacity: 1" offset="0%"></stop><stop style="stop-color: #21d4fd;stop-opacity: 1" offset="100%"></stop></linearGradient><path d="M176.41 257.01L229.23 358.75L123.58 358.75L17.94 358.75L70.75 257.01L123.58 155.27L176.41 257.01Z" id="d4mElf4k4q"></path><path d="M496 253.91C496 312.22 448.66 359.56 390.35 359.56C332.04 359.56 284.7 312.22 284.7 253.91C284.7 195.61 332.04 148.27 390.35 148.27C448.66 148.27 496 195.61 496 253.91Z" id="baxQBwf2h"></path><path d="M256 363.73L256 152.44" id="b3XLQcyxB6"></path></defs><g><g><g><use xlink:href="#bESlv7Djk" opacity="1" fill="url(#gradientcn1EHmIvN)"></use></g><g><use xlink:href="#d4mElf4k4q" opacity="1" fill="#ffffff" fill-opacity="0"></use><g><use xlink:href="#d4mElf4k4q" opacity="1" fill-opacity="0" stroke="#ffffff" stroke-width="7" stroke-opacity="1"></use></g></g><g><use xlink:href="#baxQBwf2h" opacity="1" fill="#ffffff" fill-opacity="0"></use><g><use xlink:href="#baxQBwf2h" opacity="1" fill-opacity="0" stroke="#ffffff" stroke-width="7" stroke-opacity="1"></use></g></g><g><g><use xlink:href="#b3XLQcyxB6" opacity="1" fill-opacity="0" stroke="#ffffff" stroke-width="7" stroke-opacity="1"></use></g></g></g></g></svg>